<mxfile host="app.diagrams.net" modified="2021-11-03T18:23:09.870Z" agent="5.0 (Windows NT 10.0; Win64; x64) AppleWebKit/537.36 (KHTML, like Gecko) Chrome/95.0.4638.54 Safari/537.36" etag="p7ek-DXDbxawo4rUGtGk" version="15.6.6" type="github">
  <diagram id="p7EDJOorh8zfAeoK4Xsa" name="To Be SW Stack Design">
    <mxGraphModel dx="1038" dy="500" grid="1" gridSize="10" guides="1" tooltips="1" connect="1" arrows="1" fold="1" page="1" pageScale="1" pageWidth="850" pageHeight="1100" math="0" shadow="0">
      <root>
        <mxCell id="0" />
        <mxCell id="1" parent="0" />
        <mxCell id="cMiXQTPa7QHdeF7Lkv3R-1" value="" style="rounded=0;whiteSpace=wrap;html=1;fillColor=#1E7898;strokeColor=#FFFFFF;fontColor=#ffffff;" vertex="1" parent="1">
          <mxGeometry x="120" y="275" width="520" height="164" as="geometry" />
        </mxCell>
        <mxCell id="cMiXQTPa7QHdeF7Lkv3R-2" value="" style="rounded=0;whiteSpace=wrap;html=1;fillColor=#0F3C4C;shadow=0;sketch=0;glass=0;strokeColor=#FFFFFF;fontColor=default;" vertex="1" parent="1">
          <mxGeometry x="40" y="440" width="1090" height="39" as="geometry" />
        </mxCell>
        <mxCell id="cMiXQTPa7QHdeF7Lkv3R-3" value="QNX Hypervisor" style="rounded=0;whiteSpace=wrap;html=1;fillColor=#999999;strokeColor=#FFFFFF;fontStyle=3;shadow=0;glass=0;sketch=0;fontColor=#FFFFFF;" vertex="1" parent="1">
          <mxGeometry x="40" y="560" width="1980" height="40" as="geometry" />
        </mxCell>
        <mxCell id="cMiXQTPa7QHdeF7Lkv3R-4" value="Qualcomm SA8155" style="rounded=0;whiteSpace=wrap;html=1;fillColor=#666666;strokeColor=#FFFFFF;fontStyle=3;shadow=0;sketch=0;glass=0;fontColor=#FFFFFF;" vertex="1" parent="1">
          <mxGeometry x="40" y="600" width="1980" height="40" as="geometry" />
        </mxCell>
        <mxCell id="cMiXQTPa7QHdeF7Lkv3R-5" value="" style="rounded=0;whiteSpace=wrap;html=1;shadow=0;glass=0;sketch=0;fillColor=#b1ddf0;strokeColor=#FFFFFF;fontColor=default;" vertex="1" parent="1">
          <mxGeometry x="120" y="480" width="1900" height="80" as="geometry" />
        </mxCell>
        <mxCell id="cMiXQTPa7QHdeF7Lkv3R-6" value="&lt;b&gt;SOA Management Layer&lt;/b&gt;" style="text;html=1;strokeColor=#FFFFFF;fillColor=#000066;align=center;verticalAlign=middle;whiteSpace=wrap;rounded=0;fontColor=#ffffff;shadow=0;glass=0;sketch=0;" vertex="1" parent="1">
          <mxGeometry x="40" y="480" width="80" height="80" as="geometry" />
        </mxCell>
        <mxCell id="cMiXQTPa7QHdeF7Lkv3R-7" value="Network Security" style="rounded=1;whiteSpace=wrap;html=1;fillColor=#44ADD8;strokeColor=default;fontColor=#FFFFFF;shadow=0;glass=0;sketch=0;" vertex="1" parent="1">
          <mxGeometry x="460" y="500" width="140" height="50" as="geometry" />
        </mxCell>
        <mxCell id="cMiXQTPa7QHdeF7Lkv3R-8" value="Protocol Stack" style="rounded=1;whiteSpace=wrap;html=1;fillColor=#44ADD8;strokeColor=default;fontColor=#FFFFFF;shadow=0;glass=0;sketch=0;" vertex="1" parent="1">
          <mxGeometry x="620" y="500" width="140" height="50" as="geometry" />
        </mxCell>
        <mxCell id="cMiXQTPa7QHdeF7Lkv3R-9" value="Service Discovery" style="rounded=1;whiteSpace=wrap;html=1;fillColor=#44ADD8;strokeColor=default;fontColor=#FFFFFF;shadow=0;glass=0;sketch=0;fontSize=12;" vertex="1" parent="1">
          <mxGeometry x="140" y="500" width="140" height="50" as="geometry" />
        </mxCell>
        <mxCell id="cMiXQTPa7QHdeF7Lkv3R-10" value="I/O Management" style="rounded=1;whiteSpace=wrap;html=1;fillColor=#44ADD8;strokeColor=default;fontColor=#FFFFFF;shadow=0;glass=0;sketch=0;" vertex="1" parent="1">
          <mxGeometry x="300" y="500" width="140" height="50" as="geometry" />
        </mxCell>
        <mxCell id="cMiXQTPa7QHdeF7Lkv3R-11" value="&lt;b style=&quot;&quot;&gt;QNX Kernel&lt;/b&gt;" style="rounded=0;whiteSpace=wrap;html=1;fontColor=#FFFFFF;fillColor=#0f3c4c;strokeColor=#FFFFFF;" vertex="1" parent="1">
          <mxGeometry x="40" y="440" width="80" height="40" as="geometry" />
        </mxCell>
        <mxCell id="cMiXQTPa7QHdeF7Lkv3R-12" value="" style="verticalLabelPosition=bottom;shadow=0;dashed=0;align=center;html=1;verticalAlign=top;strokeWidth=1;shape=mxgraph.mockup.markup.curlyBrace;strokeColor=#000000;glass=1;sketch=0;fontSize=22;fontColor=#000000;fillColor=#6666FF;" vertex="1" parent="1">
          <mxGeometry x="40" y="54" width="1090" height="20" as="geometry" />
        </mxCell>
        <mxCell id="cMiXQTPa7QHdeF7Lkv3R-13" value="Partition - QNX" style="text;html=1;fillColor=#cce5ff;align=center;verticalAlign=middle;whiteSpace=wrap;rounded=0;shadow=1;glass=1;sketch=0;fontSize=22;strokeColor=#36393d;strokeWidth=1;fontColor=default;" vertex="1" parent="1">
          <mxGeometry x="500" y="14" width="170" height="30" as="geometry" />
        </mxCell>
        <mxCell id="cMiXQTPa7QHdeF7Lkv3R-14" value="SOA Tool chain" style="rounded=1;whiteSpace=wrap;html=1;fillColor=#44ADD8;strokeColor=default;fontColor=#FFFFFF;shadow=0;glass=0;sketch=0;" vertex="1" parent="1">
          <mxGeometry x="1100" y="500" width="140" height="50" as="geometry" />
        </mxCell>
        <mxCell id="cMiXQTPa7QHdeF7Lkv3R-15" value="NXP S32G" style="rounded=0;whiteSpace=wrap;html=1;fillColor=#666666;strokeColor=#FFFFFF;fontStyle=3;shadow=0;sketch=0;glass=0;fontColor=#FFFFFF;" vertex="1" parent="1">
          <mxGeometry x="1200" y="800" width="180" height="40" as="geometry" />
        </mxCell>
        <mxCell id="cMiXQTPa7QHdeF7Lkv3R-16" value="QNX RTOS" style="rounded=0;whiteSpace=wrap;html=1;fillColor=#999999;strokeColor=#FFFFFF;fontStyle=3;shadow=0;glass=0;sketch=0;fontColor=#FFFFFF;" vertex="1" parent="1">
          <mxGeometry x="1200" y="750" width="180" height="50" as="geometry" />
        </mxCell>
        <mxCell id="cMiXQTPa7QHdeF7Lkv3R-17" value="Body Control Module" style="rounded=0;whiteSpace=wrap;html=1;shadow=0;glass=0;sketch=0;fontSize=20;fontColor=#FFFFFF;fillColor=#3da9c2;strokeColor=#FFFFFF;" vertex="1" parent="1">
          <mxGeometry x="1200" y="680" width="180" height="70" as="geometry" />
        </mxCell>
        <mxCell id="cMiXQTPa7QHdeF7Lkv3R-18" value="CAN-FD" style="text;html=1;strokeColor=#36393d;fillColor=#ffff88;align=center;verticalAlign=middle;whiteSpace=wrap;rounded=0;shadow=1;glass=0;sketch=1;fontSize=14;" vertex="1" parent="1">
          <mxGeometry x="455" y="700" width="60" height="30" as="geometry" />
        </mxCell>
        <mxCell id="cMiXQTPa7QHdeF7Lkv3R-19" value="LIN" style="text;html=1;strokeColor=#36393d;fillColor=#ffff88;align=center;verticalAlign=middle;whiteSpace=wrap;rounded=0;shadow=1;glass=0;sketch=1;fontSize=14;" vertex="1" parent="1">
          <mxGeometry x="606" y="700" width="60" height="30" as="geometry" />
        </mxCell>
        <mxCell id="cMiXQTPa7QHdeF7Lkv3R-20" value="BroadR-Ethernet" style="text;html=1;strokeColor=#36393d;fillColor=#ffff88;align=center;verticalAlign=middle;whiteSpace=wrap;rounded=0;shadow=1;glass=0;sketch=1;fontSize=14;" vertex="1" parent="1">
          <mxGeometry x="757" y="700" width="60" height="30" as="geometry" />
        </mxCell>
        <mxCell id="cMiXQTPa7QHdeF7Lkv3R-21" value="" style="shape=flexArrow;endArrow=classic;startArrow=classic;html=1;rounded=0;fontSize=14;fontColor=#000000;fillColor=#bac8d3;strokeColor=#23445d;labelBackgroundColor=default;" edge="1" parent="1">
          <mxGeometry width="100" height="100" relative="1" as="geometry">
            <mxPoint x="371" y="1006" as="sourcePoint" />
            <mxPoint x="1671" y="1006" as="targetPoint" />
          </mxGeometry>
        </mxCell>
        <mxCell id="cMiXQTPa7QHdeF7Lkv3R-22" value="&lt;font color=&quot;#000000&quot;&gt;Vehicle Network&lt;/font&gt;" style="edgeLabel;html=1;align=center;verticalAlign=middle;resizable=0;points=[];fontSize=22;fontColor=#FFFFFF;" vertex="1" connectable="0" parent="cMiXQTPa7QHdeF7Lkv3R-21">
          <mxGeometry x="-0.1921" y="-2" relative="1" as="geometry">
            <mxPoint x="138" as="offset" />
          </mxGeometry>
        </mxCell>
        <mxCell id="cMiXQTPa7QHdeF7Lkv3R-23" value="" style="shape=flexArrow;endArrow=classic;startArrow=classic;html=1;rounded=0;fontSize=14;fontColor=#000000;fillColor=#fad9d5;strokeColor=#ae4132;" edge="1" parent="1">
          <mxGeometry width="100" height="100" relative="1" as="geometry">
            <mxPoint x="1325" y="1000" as="sourcePoint" />
            <mxPoint x="1325" y="839" as="targetPoint" />
          </mxGeometry>
        </mxCell>
        <mxCell id="cMiXQTPa7QHdeF7Lkv3R-24" value="LIN" style="text;html=1;strokeColor=#36393d;fillColor=#ffff88;align=center;verticalAlign=middle;whiteSpace=wrap;rounded=0;shadow=1;glass=0;sketch=1;fontSize=14;" vertex="1" parent="1">
          <mxGeometry x="1331" y="900" width="60" height="30" as="geometry" />
        </mxCell>
        <mxCell id="cMiXQTPa7QHdeF7Lkv3R-25" value="" style="shape=flexArrow;endArrow=classic;startArrow=classic;html=1;rounded=0;fontSize=14;fontColor=#000000;fillColor=#fad7ac;strokeColor=#b46504;" edge="1" parent="1">
          <mxGeometry width="100" height="100" relative="1" as="geometry">
            <mxPoint x="1220" y="1000" as="sourcePoint" />
            <mxPoint x="1220" y="839" as="targetPoint" />
          </mxGeometry>
        </mxCell>
        <mxCell id="cMiXQTPa7QHdeF7Lkv3R-26" value="CAN-FD" style="text;html=1;strokeColor=#36393d;fillColor=#ffff88;align=center;verticalAlign=middle;whiteSpace=wrap;rounded=0;shadow=1;glass=0;sketch=1;fontSize=14;" vertex="1" parent="1">
          <mxGeometry x="1225" y="900" width="60" height="30" as="geometry" />
        </mxCell>
        <mxCell id="cMiXQTPa7QHdeF7Lkv3R-27" value="&lt;h1 style=&quot;font-size: 24px&quot;&gt;&lt;br&gt;&lt;/h1&gt;&lt;div&gt;&lt;span style=&quot;font-size: 24px ; font-weight: 700&quot;&gt;Setup on Dongfeng i-Space Demo Vehicle&lt;/span&gt;&lt;br&gt;&lt;/div&gt;" style="text;html=1;strokeColor=#36393d;fillColor=#cdeb8b;spacing=5;spacingTop=-20;whiteSpace=wrap;overflow=hidden;rounded=0;shadow=1;glass=0;sketch=0;fontSize=14;" vertex="1" parent="1">
          <mxGeometry x="41" y="838" width="361" height="130" as="geometry" />
        </mxCell>
        <mxCell id="cMiXQTPa7QHdeF7Lkv3R-28" value="" style="shape=image;html=1;verticalAlign=top;verticalLabelPosition=bottom;labelBackgroundColor=#ffffff;imageAspect=0;aspect=fixed;image=https://cdn3.iconfinder.com/data/icons/free-mix/128/business_office_seo_finance_work_coffee_pause_management-05-128.png;shadow=1;glass=0;sketch=0;fontSize=24;fontColor=#00FF80;strokeColor=#000000;fillColor=#CC0066;" vertex="1" parent="1">
          <mxGeometry x="30" y="830" width="58" height="58" as="geometry" />
        </mxCell>
        <mxCell id="cMiXQTPa7QHdeF7Lkv3R-29" value="Service Layer" style="text;html=1;strokeColor=#006EAF;fillColor=#1ba1e2;align=center;verticalAlign=middle;whiteSpace=wrap;rounded=0;fontColor=#ffffff;fontStyle=1" vertex="1" parent="1">
          <mxGeometry x="40" y="320" width="80" height="120" as="geometry" />
        </mxCell>
        <mxCell id="cMiXQTPa7QHdeF7Lkv3R-30" value="FuSa" style="rounded=1;whiteSpace=wrap;html=1;fillColor=#2187ab;fontColor=#FFFFFF;strokeColor=default;" vertex="1" parent="1">
          <mxGeometry x="160" y="342" width="100" height="30" as="geometry" />
        </mxCell>
        <mxCell id="cMiXQTPa7QHdeF7Lkv3R-31" value="BUS Signal Processing" style="rounded=1;whiteSpace=wrap;html=1;fillColor=#2187AB;fontColor=#FFFFFF;strokeColor=default;" vertex="1" parent="1">
          <mxGeometry x="402" y="390" width="100" height="30" as="geometry" />
        </mxCell>
        <mxCell id="cMiXQTPa7QHdeF7Lkv3R-32" value="" style="rounded=0;whiteSpace=wrap;html=1;fillColor=#99CCFF;strokeColor=#FFFFFF;fontColor=default;" vertex="1" parent="1">
          <mxGeometry x="120" y="180" width="520" height="94" as="geometry" />
        </mxCell>
        <mxCell id="cMiXQTPa7QHdeF7Lkv3R-33" value="App Layer" style="rounded=0;whiteSpace=wrap;html=1;shadow=0;glass=0;sketch=0;fillColor=#99CCFF;strokeColor=#FFFFFF;fontStyle=1;fontColor=#FFFFFF;" vertex="1" parent="1">
          <mxGeometry x="40" y="180" width="80" height="94" as="geometry" />
        </mxCell>
        <mxCell id="cMiXQTPa7QHdeF7Lkv3R-34" value="Speed" style="rounded=1;whiteSpace=wrap;html=1;fillColor=#44add8;fontColor=#FFFFFF;strokeColor=#000000;" vertex="1" parent="1">
          <mxGeometry x="155" y="201" width="100" height="30" as="geometry" />
        </mxCell>
        <mxCell id="cMiXQTPa7QHdeF7Lkv3R-35" value="ADAS" style="rounded=1;whiteSpace=wrap;html=1;fillColor=#44ADD8;fontColor=#FFFFFF;strokeColor=#000000;" vertex="1" parent="1">
          <mxGeometry x="402" y="201" width="100" height="30" as="geometry" />
        </mxCell>
        <mxCell id="cMiXQTPa7QHdeF7Lkv3R-36" style="edgeStyle=orthogonalEdgeStyle;rounded=0;orthogonalLoop=1;jettySize=auto;html=1;exitX=0.5;exitY=1;exitDx=0;exitDy=0;fontSize=22;fontColor=#000000;strokeWidth=5;fillColor=#FF0000;gradientColor=none;strokeColor=#FF66B3;" edge="1" parent="1">
          <mxGeometry relative="1" as="geometry">
            <mxPoint x="452" y="275" as="sourcePoint" />
            <mxPoint x="452" y="275" as="targetPoint" />
          </mxGeometry>
        </mxCell>
        <mxCell id="cMiXQTPa7QHdeF7Lkv3R-37" value="Driving Info" style="rounded=1;whiteSpace=wrap;html=1;fillColor=#44ADD8;fontColor=#FFFFFF;strokeColor=#000000;" vertex="1" parent="1">
          <mxGeometry x="278" y="201" width="100" height="30" as="geometry" />
        </mxCell>
        <mxCell id="cMiXQTPa7QHdeF7Lkv3R-38" value="HVAC" style="rounded=1;whiteSpace=wrap;html=1;fillColor=#44ADD8;fontColor=#FFFFFF;strokeColor=#000000;" vertex="1" parent="1">
          <mxGeometry x="278" y="241" width="100" height="30" as="geometry" />
        </mxCell>
        <mxCell id="cMiXQTPa7QHdeF7Lkv3R-39" value="Navigation" style="rounded=1;whiteSpace=wrap;html=1;fillColor=#44ADD8;fontColor=#FFFFFF;strokeColor=#000000;" vertex="1" parent="1">
          <mxGeometry x="155" y="241" width="100" height="30" as="geometry" />
        </mxCell>
        <mxCell id="cMiXQTPa7QHdeF7Lkv3R-40" value="Alarms &amp;amp; Warnings" style="rounded=1;whiteSpace=wrap;html=1;fillColor=#44ADD8;fontColor=#FFFFFF;strokeColor=#000000;" vertex="1" parent="1">
          <mxGeometry x="402" y="241" width="100" height="30" as="geometry" />
        </mxCell>
        <mxCell id="cMiXQTPa7QHdeF7Lkv3R-41" value="Lifecycle Manager" style="rounded=1;whiteSpace=wrap;html=1;fillColor=#2187AB;fontColor=#FFFFFF;strokeColor=default;" vertex="1" parent="1">
          <mxGeometry x="160" y="390" width="100" height="30" as="geometry" />
        </mxCell>
        <mxCell id="cMiXQTPa7QHdeF7Lkv3R-42" value="Auto Signal Processing" style="rounded=1;whiteSpace=wrap;html=1;fillColor=#2187AB;fontColor=#FFFFFF;strokeColor=default;" vertex="1" parent="1">
          <mxGeometry x="402" y="299" width="100" height="30" as="geometry" />
        </mxCell>
        <mxCell id="cMiXQTPa7QHdeF7Lkv3R-43" value="Power State Manager" style="rounded=1;whiteSpace=wrap;html=1;fillColor=#2187AB;fontColor=#FFFFFF;strokeColor=default;" vertex="1" parent="1">
          <mxGeometry x="402" y="342" width="100" height="30" as="geometry" />
        </mxCell>
        <mxCell id="cMiXQTPa7QHdeF7Lkv3R-44" value="Service Layer" style="text;html=1;strokeColor=#FFFFFF;fillColor=#1e7898;align=center;verticalAlign=middle;whiteSpace=wrap;rounded=0;fontColor=#ffffff;fontStyle=1" vertex="1" parent="1">
          <mxGeometry x="40" y="275" width="80" height="164" as="geometry" />
        </mxCell>
        <mxCell id="cMiXQTPa7QHdeF7Lkv3R-45" value="Diagnostic" style="rounded=1;whiteSpace=wrap;html=1;fillColor=#2187AB;fontColor=#FFFFFF;strokeColor=default;" vertex="1" parent="1">
          <mxGeometry x="278" y="342" width="100" height="30" as="geometry" />
        </mxCell>
        <mxCell id="cMiXQTPa7QHdeF7Lkv3R-46" value="Security" style="rounded=1;whiteSpace=wrap;html=1;fillColor=#2187AB;fontColor=#FFFFFF;strokeColor=default;" vertex="1" parent="1">
          <mxGeometry x="278" y="390" width="100" height="30" as="geometry" />
        </mxCell>
        <mxCell id="cMiXQTPa7QHdeF7Lkv3R-47" value="&lt;font&gt;IVY Stack&lt;/font&gt;" style="text;html=1;strokeColor=#666666;fillColor=#3DA9C2;align=center;verticalAlign=middle;whiteSpace=wrap;rounded=0;shadow=1;glass=0;sketch=0;fontFamily=Verdana;fontSize=12;fontColor=#FFFFFF;fontStyle=1" vertex="1" parent="1">
          <mxGeometry x="856.17" y="80" width="74" height="30" as="geometry" />
        </mxCell>
        <mxCell id="cMiXQTPa7QHdeF7Lkv3R-48" value="" style="shape=flexArrow;endArrow=classic;startArrow=classic;html=1;rounded=0;fontSize=14;fontColor=#000000;fillColor=#b0e3e6;strokeColor=#0e8088;labelBackgroundColor=default;" edge="1" parent="1">
          <mxGeometry width="100" height="100" relative="1" as="geometry">
            <mxPoint x="750" y="1000" as="sourcePoint" />
            <mxPoint x="750" y="640" as="targetPoint" />
          </mxGeometry>
        </mxCell>
        <mxCell id="cMiXQTPa7QHdeF7Lkv3R-49" value="" style="shape=flexArrow;endArrow=classic;startArrow=classic;html=1;rounded=0;fontSize=14;fontColor=#000000;fillColor=#fad9d5;strokeColor=#ae4132;labelBackgroundColor=default;" edge="1" parent="1">
          <mxGeometry width="100" height="100" relative="1" as="geometry">
            <mxPoint x="600" y="1000" as="sourcePoint" />
            <mxPoint x="600" y="640" as="targetPoint" />
          </mxGeometry>
        </mxCell>
        <mxCell id="cMiXQTPa7QHdeF7Lkv3R-50" value="" style="shape=flexArrow;endArrow=classic;startArrow=classic;html=1;rounded=0;fontSize=14;fontColor=#000000;fillColor=#fad7ac;strokeColor=#b46504;labelBackgroundColor=default;" edge="1" parent="1">
          <mxGeometry width="100" height="100" relative="1" as="geometry">
            <mxPoint x="450" y="1000" as="sourcePoint" />
            <mxPoint x="450" y="642" as="targetPoint" />
          </mxGeometry>
        </mxCell>
        <mxCell id="cMiXQTPa7QHdeF7Lkv3R-51" value="SoC" style="rounded=0;whiteSpace=wrap;html=1;fillColor=#666666;strokeColor=#FFFFFF;fontStyle=3;shadow=0;sketch=0;glass=0;fontColor=#FFFFFF;" vertex="1" parent="1">
          <mxGeometry x="1480" y="800" width="180" height="40" as="geometry" />
        </mxCell>
        <mxCell id="cMiXQTPa7QHdeF7Lkv3R-52" value="QNX RTOS" style="rounded=0;whiteSpace=wrap;html=1;fillColor=#999999;strokeColor=#FFFFFF;fontStyle=3;shadow=0;glass=0;sketch=0;fontColor=#FFFFFF;" vertex="1" parent="1">
          <mxGeometry x="1480" y="750" width="180" height="50" as="geometry" />
        </mxCell>
        <mxCell id="cMiXQTPa7QHdeF7Lkv3R-53" value="Battery Management System" style="rounded=0;whiteSpace=wrap;html=1;shadow=0;glass=0;sketch=0;fontSize=20;fontColor=#FFFFFF;fillColor=#3da9c2;strokeColor=#FFFFFF;" vertex="1" parent="1">
          <mxGeometry x="1480" y="680" width="180" height="70" as="geometry" />
        </mxCell>
        <mxCell id="cMiXQTPa7QHdeF7Lkv3R-54" value="" style="shape=flexArrow;endArrow=classic;startArrow=classic;html=1;rounded=0;fontSize=14;fontColor=#000000;fillColor=#fad9d5;strokeColor=#ae4132;" edge="1" parent="1">
          <mxGeometry width="100" height="100" relative="1" as="geometry">
            <mxPoint x="1605" y="1000.0000000000002" as="sourcePoint" />
            <mxPoint x="1605" y="839" as="targetPoint" />
          </mxGeometry>
        </mxCell>
        <mxCell id="cMiXQTPa7QHdeF7Lkv3R-55" value="LIN" style="text;html=1;strokeColor=#36393d;fillColor=#ffff88;align=center;verticalAlign=middle;whiteSpace=wrap;rounded=0;shadow=1;glass=0;sketch=1;fontSize=14;" vertex="1" parent="1">
          <mxGeometry x="1611" y="900" width="60" height="30" as="geometry" />
        </mxCell>
        <mxCell id="cMiXQTPa7QHdeF7Lkv3R-56" value="" style="shape=flexArrow;endArrow=classic;startArrow=classic;html=1;rounded=0;fontSize=14;fontColor=#000000;fillColor=#fad7ac;strokeColor=#b46504;" edge="1" parent="1">
          <mxGeometry width="100" height="100" relative="1" as="geometry">
            <mxPoint x="1500" y="1000.0000000000002" as="sourcePoint" />
            <mxPoint x="1500" y="839" as="targetPoint" />
          </mxGeometry>
        </mxCell>
        <mxCell id="cMiXQTPa7QHdeF7Lkv3R-57" value="CAN-FD" style="text;html=1;strokeColor=#36393d;fillColor=#ffff88;align=center;verticalAlign=middle;whiteSpace=wrap;rounded=0;shadow=1;glass=0;sketch=1;fontSize=14;" vertex="1" parent="1">
          <mxGeometry x="1505" y="900" width="60" height="30" as="geometry" />
        </mxCell>
        <mxCell id="cMiXQTPa7QHdeF7Lkv3R-58" value="" style="endArrow=classic;startArrow=classic;html=1;rounded=0;fontFamily=Verdana;fontSize=12;fontColor=#FFFFFF;strokeColor=#FFFFFF;strokeWidth=1;fillColor=#FF0000;gradientColor=none;dashed=1;labelBackgroundColor=default;" edge="1" parent="1">
          <mxGeometry x="1040" y="366.5" width="50" height="50" as="geometry">
            <mxPoint x="1040.33" y="399.87037037037044" as="sourcePoint" />
            <mxPoint x="1040" y="366.5" as="targetPoint" />
          </mxGeometry>
        </mxCell>
        <mxCell id="cMiXQTPa7QHdeF7Lkv3R-59" value="" style="endArrow=classic;startArrow=classic;html=1;rounded=0;fontFamily=Verdana;fontSize=12;fontColor=#FFFFFF;strokeColor=#FFFFFF;strokeWidth=1;fillColor=#FF0000;gradientColor=none;dashed=1;labelBackgroundColor=default;" edge="1" parent="1">
          <mxGeometry x="830" y="172" width="50" height="50" as="geometry">
            <mxPoint x="870.3299999999999" y="205.37037037037044" as="sourcePoint" />
            <mxPoint x="870" y="172" as="targetPoint" />
          </mxGeometry>
        </mxCell>
        <mxCell id="cMiXQTPa7QHdeF7Lkv3R-60" value="" style="endArrow=classic;startArrow=classic;html=1;rounded=0;fontFamily=Verdana;fontSize=12;fontColor=#FFFFFF;strokeColor=#FFFFFF;strokeWidth=1;fillColor=#FF0000;gradientColor=none;dashed=1;labelBackgroundColor=default;" edge="1" parent="1">
          <mxGeometry x="830" y="172" width="50" height="50" as="geometry">
            <mxPoint x="909.3299999999999" y="206" as="sourcePoint" />
            <mxPoint x="909" y="172.62962962962956" as="targetPoint" />
          </mxGeometry>
        </mxCell>
        <mxCell id="cMiXQTPa7QHdeF7Lkv3R-61" value="" style="endArrow=classic;startArrow=classic;html=1;rounded=0;fontFamily=Verdana;fontSize=12;fontColor=#FFFFFF;strokeColor=#FFFFFF;strokeWidth=1;fillColor=#FF0000;gradientColor=none;dashed=1;labelBackgroundColor=default;" edge="1" parent="1">
          <mxGeometry x="830" y="172" width="50" height="50" as="geometry">
            <mxPoint x="949.3299999999999" y="206" as="sourcePoint" />
            <mxPoint x="949" y="172.62962962962956" as="targetPoint" />
          </mxGeometry>
        </mxCell>
        <mxCell id="cMiXQTPa7QHdeF7Lkv3R-62" value="" style="endArrow=classic;startArrow=classic;html=1;rounded=0;fontFamily=Verdana;fontSize=12;fontColor=#FFFFFF;strokeColor=#FFFFFF;strokeWidth=1;fillColor=#FF0000;gradientColor=none;dashed=1;labelBackgroundColor=default;" edge="1" parent="1">
          <mxGeometry x="830" y="172" width="50" height="50" as="geometry">
            <mxPoint x="830.3299999999999" y="205.37037037037044" as="sourcePoint" />
            <mxPoint x="830" y="172" as="targetPoint" />
          </mxGeometry>
        </mxCell>
        <mxCell id="cMiXQTPa7QHdeF7Lkv3R-63" value="" style="edgeStyle=elbowEdgeStyle;elbow=vertical;endArrow=classic;html=1;rounded=0;labelBackgroundColor=default;fontColor=default;startSize=6;strokeColor=#000000;strokeWidth=1;jumpSize=6;dashed=1;startArrow=none;entryX=0.767;entryY=0;entryDx=0;entryDy=0;entryPerimeter=0;" edge="1" parent="1" source="cMiXQTPa7QHdeF7Lkv3R-78" target="cMiXQTPa7QHdeF7Lkv3R-32">
          <mxGeometry width="50" height="50" relative="1" as="geometry">
            <mxPoint x="810" y="123" as="sourcePoint" />
            <mxPoint x="519" y="120" as="targetPoint" />
            <Array as="points">
              <mxPoint x="660" y="90" />
            </Array>
          </mxGeometry>
        </mxCell>
        <mxCell id="cMiXQTPa7QHdeF7Lkv3R-64" value="" style="edgeStyle=elbowEdgeStyle;elbow=vertical;endArrow=classic;html=1;rounded=0;dashed=1;labelBackgroundColor=default;fontColor=default;startSize=6;strokeColor=#000000;strokeWidth=1;jumpSize=6;entryX=0.198;entryY=-0.011;entryDx=0;entryDy=0;entryPerimeter=0;" edge="1" parent="1" target="cMiXQTPa7QHdeF7Lkv3R-81">
          <mxGeometry width="50" height="50" relative="1" as="geometry">
            <mxPoint x="1010" y="124" as="sourcePoint" />
            <mxPoint x="1360.6999999999998" y="191" as="targetPoint" />
            <Array as="points">
              <mxPoint x="1160" y="91" />
            </Array>
          </mxGeometry>
        </mxCell>
        <mxCell id="cMiXQTPa7QHdeF7Lkv3R-65" value="" style="edgeStyle=elbowEdgeStyle;elbow=vertical;endArrow=classic;html=1;rounded=0;dashed=1;labelBackgroundColor=default;fontColor=default;startSize=6;strokeColor=#000000;strokeWidth=1;jumpSize=6;entryX=0.152;entryY=-0.034;entryDx=0;entryDy=0;entryPerimeter=0;" edge="1" parent="1">
          <mxGeometry width="50" height="50" relative="1" as="geometry">
            <mxPoint x="1028.5" y="124" as="sourcePoint" />
            <mxPoint x="1280.7199999999998" y="188.62" as="targetPoint" />
            <Array as="points">
              <mxPoint x="1180" y="101" />
            </Array>
          </mxGeometry>
        </mxCell>
        <mxCell id="cMiXQTPa7QHdeF7Lkv3R-66" value="" style="edgeStyle=elbowEdgeStyle;elbow=vertical;endArrow=classic;html=1;rounded=0;dashed=1;labelBackgroundColor=default;fontColor=default;startSize=6;strokeColor=#000000;strokeWidth=1;jumpSize=6;exitX=0.25;exitY=0;exitDx=0;exitDy=0;entryX=0.846;entryY=-0.015;entryDx=0;entryDy=0;entryPerimeter=0;" edge="1" parent="1" target="cMiXQTPa7QHdeF7Lkv3R-32">
          <mxGeometry width="50" height="50" relative="1" as="geometry">
            <mxPoint x="784.435" y="124.00000000000011" as="sourcePoint" />
            <mxPoint x="560" y="121" as="targetPoint" />
            <Array as="points">
              <mxPoint x="690" y="101" />
            </Array>
          </mxGeometry>
        </mxCell>
        <mxCell id="cMiXQTPa7QHdeF7Lkv3R-67" value="" style="endArrow=classic;startArrow=classic;html=1;rounded=0;fontFamily=Verdana;fontSize=12;fontColor=#FFFFFF;strokeColor=#FFFFFF;strokeWidth=1;fillColor=#FF0000;gradientColor=none;dashed=1;labelBackgroundColor=default;" edge="1" parent="1">
          <mxGeometry x="763" y="366.5" width="50" height="50" as="geometry">
            <mxPoint x="803.3299999999999" y="399.87037037037044" as="sourcePoint" />
            <mxPoint x="803" y="366.5" as="targetPoint" />
          </mxGeometry>
        </mxCell>
        <mxCell id="cMiXQTPa7QHdeF7Lkv3R-68" value="" style="endArrow=classic;startArrow=classic;html=1;rounded=0;fontFamily=Verdana;fontSize=12;fontColor=#FFFFFF;strokeColor=#FFFFFF;strokeWidth=1;fillColor=#FF0000;gradientColor=none;dashed=1;labelBackgroundColor=default;" edge="1" parent="1">
          <mxGeometry x="763" y="366.5" width="50" height="50" as="geometry">
            <mxPoint x="842.3299999999999" y="400.5" as="sourcePoint" />
            <mxPoint x="842" y="367.12962962962956" as="targetPoint" />
          </mxGeometry>
        </mxCell>
        <mxCell id="cMiXQTPa7QHdeF7Lkv3R-69" value="" style="endArrow=classic;startArrow=classic;html=1;rounded=0;fontFamily=Verdana;fontSize=12;fontColor=#FFFFFF;strokeColor=#FFFFFF;strokeWidth=1;fillColor=#FF0000;gradientColor=none;dashed=1;labelBackgroundColor=default;" edge="1" parent="1">
          <mxGeometry x="763" y="366.5" width="50" height="50" as="geometry">
            <mxPoint x="882.3299999999999" y="400.5" as="sourcePoint" />
            <mxPoint x="882" y="367.12962962962956" as="targetPoint" />
          </mxGeometry>
        </mxCell>
        <mxCell id="cMiXQTPa7QHdeF7Lkv3R-70" value="" style="endArrow=classic;startArrow=classic;html=1;rounded=0;fontFamily=Verdana;fontSize=12;fontColor=#FFFFFF;strokeColor=#FFFFFF;strokeWidth=1;fillColor=#FF0000;gradientColor=none;dashed=1;labelBackgroundColor=default;" edge="1" parent="1">
          <mxGeometry x="763" y="180.5" width="50" height="50" as="geometry">
            <mxPoint x="803.3299999999999" y="213.87037037037044" as="sourcePoint" />
            <mxPoint x="803" y="180.5" as="targetPoint" />
          </mxGeometry>
        </mxCell>
        <mxCell id="cMiXQTPa7QHdeF7Lkv3R-71" value="" style="endArrow=classic;startArrow=classic;html=1;rounded=0;fontFamily=Verdana;fontSize=12;fontColor=#FFFFFF;strokeColor=#FFFFFF;strokeWidth=1;fillColor=#FF0000;gradientColor=none;dashed=1;labelBackgroundColor=default;" edge="1" parent="1">
          <mxGeometry x="763" y="180.5" width="50" height="50" as="geometry">
            <mxPoint x="842.3299999999999" y="214.5" as="sourcePoint" />
            <mxPoint x="842" y="181.12962962962956" as="targetPoint" />
          </mxGeometry>
        </mxCell>
        <mxCell id="cMiXQTPa7QHdeF7Lkv3R-72" value="" style="endArrow=classic;startArrow=classic;html=1;rounded=0;fontFamily=Verdana;fontSize=12;fontColor=#FFFFFF;strokeColor=#FFFFFF;strokeWidth=1;fillColor=#FF0000;gradientColor=none;dashed=1;labelBackgroundColor=default;" edge="1" parent="1">
          <mxGeometry x="763" y="180.5" width="50" height="50" as="geometry">
            <mxPoint x="882.3299999999999" y="214.5" as="sourcePoint" />
            <mxPoint x="882" y="181.12962962962956" as="targetPoint" />
          </mxGeometry>
        </mxCell>
        <mxCell id="cMiXQTPa7QHdeF7Lkv3R-73" value="" style="verticalLabelPosition=bottom;shadow=0;dashed=0;align=center;html=1;verticalAlign=top;strokeWidth=1;shape=mxgraph.mockup.markup.curlyBrace;strokeColor=#000000;glass=1;sketch=0;fontSize=22;fontColor=#000000;fillColor=#6666FF;" vertex="1" parent="1">
          <mxGeometry x="1150" y="54" width="850" height="20" as="geometry" />
        </mxCell>
        <mxCell id="cMiXQTPa7QHdeF7Lkv3R-74" value="Partition - Android" style="text;html=1;fillColor=#cce5ff;align=center;verticalAlign=middle;whiteSpace=wrap;rounded=0;shadow=1;glass=1;sketch=0;fontSize=22;strokeColor=#36393d;strokeWidth=1;fontColor=default;" vertex="1" parent="1">
          <mxGeometry x="1215" y="14" width="190" height="30" as="geometry" />
        </mxCell>
        <mxCell id="cMiXQTPa7QHdeF7Lkv3R-75" value="" style="shape=image;verticalLabelPosition=bottom;labelBackgroundColor=#ffffff;verticalAlign=top;aspect=fixed;imageAspect=0;image=data:image/png,iVBORw0KGgoAAAANSUhEUgAAAdMAAAEqCAYAAABOY7p8AAAgAElEQVR4Ae29Z5QcV5YeiLO/1mmllXZlZrTSSKPVgCRAT5AEvffdkrgrc+SOdEacHc1Mm5lpdrM9m65pG7SgA72FI0wVAMIUUPAEARThTaJQhQIKBQKgq6IBm03ePd+NuBEvXGZEZlZVZuXHc4qZGfnivfvu/d797r3vRWLc1998I/yjDogBYoAYIAaIAQ8DUsV/4y7r6BD+UQfEADFADBADxICHgSq4VMadtHSp8I86IAaIAWKAGCAGPAxURabj29uFf9QBMUAMEAPEADHgYYBkysCAgRExQAwQA8RAjRggmdaoQEZljMyJAWKAGCAGSKYkU0akxAAxQAwQAzVigGRaowIZkTIiJQaIAWKAGCCZkkwZkRIDxAAxQAzUiAGSaY0KZETaHBHpP29rk/9r7lz5/Tlz5A/mzZM/ot2rcp7Q2//d1lbVvVwrzbFWaKfq7EQypVMd047xpPZ2+Sfz5gnI9F+tWiX/ef16uaKjQ/7J/PkNRahG9iAqyFyLQ/tHc+fKP50/v+Z+0mQ4ub1dTlmwoCb50vrltdpsTv2Nvv5IpjU6LoJ49EGcZQOQ0j+eN08mLV4sS48cCbD+xe9+J4/s3St/0CCECgI9c9Ei+euuLpW1aOaHbNECBpDyn23cKNd3diqhZummmuvI7P9040aZ2dcnfwjdMUNlUEH/GWAgcDAF3oyrZiHynsYlnbFqm3/mO/uNH3yg8H6mu1tufe89mXvokCw5ckT+2fz5mrGO9vx/f+5c+S/vvKMy/sWmTVqKzisTiBSZIn7SDe/PWbxY+5ne1yd/f86cYKHn7a9cu38wZ478Yvt22f3JJ0rUIO5y7fkd13wrYaAAhwZNSaaMxprCif7enDly944dCtz/tH69/N233pK/99ZbmsWdu3ixoGSJxY4sCxmsmxHiGsgYrygJWzvst+I9iAulVNyDa3jFNbzHPciKQTZ2L+6x9vge7fEZ7fF66bJlAgK8esUK/YysD99BLvRrpV/0h+s2Pr6/aOlS6f70U+0D3z3f0yP/37vv6r0md3x+JovJgHYYA7KhbRpRQp8/2bpVuj78UGV029jc0R+u22u8nI7P+N70g7HQFuPbX3BvhhzWjq+hzqiL0ddFwJAF3pBMnYVPEI8+iNNs8M99Mtv/6adKUn9n9mwlILSFM0dWivdw5me//bb8P6tXa4ZnRHXh0qVy1ttvywVLl8qVy5fLP5w7V0DAN3Z2KkFO8LPBkxcskBs6O2XiwoXaF96jrIyy6+mLFun+rBEHskeUcy9ZtkxwPwj0uhUrAsK9eNkyQX8gcZDOt1aulH+xapXKDbL6R/PmyVXLl2sJF/JfsXy5ktK/XbtW3j9xQm7ZsEFJ+vwlS3RsvWfuXDlvyRK5efVqnS/6xbwhiysDCAxECl38y1WrVEcuWeKeLDJFO+jtxpUr5dKODu3/8o4OOeftt+WaFSu0L8iCAAL71cierSwNvWPe2OdFG8wfbTAedIM+4nLgO/5RB42GgQIcGjQlmXIxN7wzA2mAtD776istoaKUGl98IKebVq6Uvs8+U3C/99FHct7ixfJ/zJ4tz+/fLx3vvy/dQ0PyyW9/q/uQOz7+WE787nfyH9etUye/+cMPZW5/v5z4+mt588AB+eX27fLl11/LumPHlFz+zZo1suuTT5SkMdY7H3yg/aDMPKOvT/o//1w+/eor+Xdr18oZixbJ3qEhJcjfmztXXti/X/+Zw29E5PZt2+R/mzlTUAJG/xjvwd27BfKC+Lo++kjl/+qbb5TYsT+McvbfnDVL/u2aNfL+F1/o9+uPH5fTFi0S6GLZkSMRGf7DunVKWhs//FDQD7JkkLpLZGlkCgLEXuq9u3apvBjrod27BaX1q5cvl55PP5X/tmGD6hQZNIIbBCTQx6KBAcH8Pv7tb7UNytIIYDZ9+KG8fuCAfPDll0qsIOq47fiZZNpoGAgYssAbkinJtOGdGxwwMhuQFQ7jxB2ylmXb2pTsQEY4/HPos8/0oNL/PmuWvNbbq8SFbG/Lxx8LDi39oKtLQEggAWSdIDYQI4gL/4Ggvr95sxIEskpkXQNffBGQKYgV3694/33NJP/1mjUCQl48MCBnvv22HDtxQi5YskRLtL/75hu5Z8cO+c3u3fLjLVtkwsKF8slXX+m9kGnNsWOCNpjjT7duVcJ/slSSUxculK0ffaT3IOs++PnnsvroUZXxwy+/VJL8P2fPlnc/+EDHgwx4397fr4QGskP/d2zfHmSU5rTSyBSk+O2VK3X+rx04IN/ZtEmDguMnTigZv9rbq6T/N2fOlJ9s2SL7hoYEe6+/3rlTjp44If/1nXdkWne3Ej6ydmT4IFG0g16RqbqEbrLwlWTaaBgowKFBU5IpybThyRRlRJQah776SrMzZE/u4sNn7KPCcSMb/V9mzFBSQJaE0iLIFKT5P7zxhrzY06ME9T9Ony737typhIZSLsgPpAliRvb6p+++KyAqEBIyPTyKg6wXB4RAOts+/li+u2mTktuje/fKuNdfl/t27dJMDKVPZKogU2SWyEyRWUJOPBv7V11dMvjb32qZ+G/MnKkBAmRF2RfEjgzw4qVLdfxtH32k4+AxIJA5CArzw3xBcqcvXKgE+nippDKA2BAk/Pt16+QzP/NGQIGs09VZGpkim3xy3z4dH+QN2XCa+OgXX2gAgDI5qgP/7+rVeuhraqmkWerOTz6RzqNH5XubN8td/r425ohsGPNCFv63UmRw5eH7qH2oj9HVR8CQBd6QTGNOhiAeXRCn6R8Eh6wGmdnDe/aoA3fb4TDSz7Zu1awJJPGHbW26h4iyLjJZZFQv9fTI/zxjhpLposOH5X+dOVPu37VLyQ77p72ffaZ7jyjRHvr8c0GWh/IyyrX/fu1audknU8gBUtz68cfyvU2bZNXRo/LjrVvlf5o+XbPPDR98oPuIyIyxD4pyMMgEcoHQICtKp8g4kWFDVvSJsjP2aLFHeuCzz+TaFSvk77/1lrYDof1i2zZZefSo3o/9UAQJvZ9+qmOAPH+6bZvKcNf27aoHlH+RJSLjRWYaD0DSyBT3IDtv6+/X08OQD0HM7sFB3WPGXvUrvb2yd3BQZURZHbbZPzSkJXQEAdA55vbnmzbpfBFUoHyNAMS1Gd833jqjTUKbFODQoCnJlGTaFE4O5USQA0q0OFAEUoKzx2Ei/OHE68DnnyuJIgvEwZfjX36p5IQ9O5AAMjqQ6tsDA5p1PeCQKQgMxAEyBQFgjxRkWhoa0swURHf48881M8QpYjxSApIEmaI0CzJFVhiQ6eefq5z4Hlkj9klBaJD1R1u2aCYM5wWCwnywP3nt8uWpZIpy65+8+65mjCBSlFlxmAmlVexLYsyf+2SKcjLIDPpC8IBsEe2QVbonbUGmkBv7odAlPtv+MrJu3P+3Z83SDBfzBnkjq8ahpN9+/bWW1KF/lG33DA5qiRdzxPwQNKCagHsQmODAFMk0dNQkrcbXRcCQBd6QTEmmTUGmIAKUY0EMKLeCPFEWRUb69L59MnHBAr3efviwfHvVKi23IisEQcw+eFCwBwgyBaniuVSUMJEh4mASMlM4fSPTI198oeVkkCnKvHhu9JSFC+WjL7+Ue3bu1DLt57/7nY6PPUrIADLFwR0c+kGZF31MXrJEbtuyRdD2zzduVLLFnilO2SJjRHCAUjCyQfyHAACZKWSxzBQZ6w/fe09thH1SBAbI9JAxIygAEW756CPNXJXQd+zQuePAEMgSGfbhL77QuYHgzJGDPH/03nu6twyyRlkWY6M9/vvltm0qDw4QYVzsgcIGIEuQNfZ0kTmjHxzwQpaMk9LYR8YeMOyBkjVK09hvJpk2PoEYNvjarmug6P9IpiTTwME28iLCIylw5MhyQFTuf/P7++Vvz56t5VgcUsJ/2AMFIWG/cNbBg/Kyn5lizxT7pyBTlHlBrCBTlCiNTFFOtswUpIUTrOgH7e0/9IPsDc9p4nlNLfPu3KllXdszBblg7xFj2H8ouWJs7NfiP2Ta2NMFGYEAQWiQxcgURIn+cQ9+sQgHpfAfysg4UQtCw6Grn/mZKZ7FXXf8uB5mwh7z1998owSMLNLdNwUJIrN2/wPRY56v9/bqZezJgryhAwQAeOQF8oGcjSBBsPhuxyef6FgY77nubvnHc+fqQSwEPsxMSaSN7FvSZHPXRd73JFOSaVOQqQEepVJkfCClx/fu1ROneEQE5UY4+2uWL9fSJp53BJHhOkgK+5dw/HgFUeE92uAELQ4VIdvD6VnsX/6r1au1fIp7UU5FRoy9TRyoQZaKE7IgJpRccWgJ2SWyPpAbHhVBf+gDmRl+5hA/KIEyLQ4NISjAPiPG/4/r1+ujObiG8TEPPC9q7zGe9Y/3yO7w/CcOPoHUMD/Igb1LlHFNBtwD8sTcsN+KQ0u433SIV8iAw1p4lAd7wjiwhHKzke4fb9igciDDxFwwJxA3ysmlwcHgF6cgO8ZFeRzkjMwWc0P/qodVqzSrhS7d8fmeBNvIGMhLoG47kinJtOmcHJw1MitkhshWQRRw6liccOy4hjb4jOt4jz+8BwHae/xYAkq5ICQlEd/h4705f7wHMeBeXANhg9DxHtfwvY2v/fkEZ/2hDe7HPbjX7sOvIoEc8Yfvrb0rS7x/zAft3PnZnOMy2HWMi/7x2f0zuUwGvFofJi/GcmXDuKuPHZNn9+1TYnX7w9wxlgUw6N/mYrp02/N91B7UR2PpwyXJvO+TZIqFB0fEv8bWQcw5jqfdGttetp7idsNn+66BX/9gzhy5ctlS+fzLL+Vm/FDDW281hdzDqtu4LbkGmxMTKcFmXgJ120XI9I8QvS9fLhN37JCJW7fxrxF1sH2HTOjqkvH4p7N8EMBuJ69cKafSbo2N2W3b5aQlSwK7wX4nLV7c2DL7a+DkLVvlkt175I/7D8tp27bLhEZcGyMlE9bguxtDOyILnz9fTlmzlmtwpGxQr3F27FDOg/3c6oBLknnfR8l03jw5efVqOe1Qv5x2oI9/jaiDg4fk1NK+KJnOmyenrF8vZ9BujY3ZvoNy8vLlXvTuZ6QnLV3a2DL7a+D0A30yofeA/OG+bjm194Dgc8v6iIOHZOLOXaEdQabz5smEzV1cg82Gi0P9ynmwX/3JFAchoJD9PfxrRB30HpBT9+xNkum6dZ6Da0SZKZO3lnp65WT88LtFwagEgUypn+bSQe8Bmbh9R2hHI9ONm7gGmw3LB/rkZPwDFA1Ppj09clpPb90XCiLj03qr6NfkqUEmHbuG+2t2nLWSqeqgukDp1N5ezUpqnoMtuJ6c/WHcvj45FUHeaOre5K72dTjJFLqEjvocHeHagQP1WX85+8J4p/YdrC9OqtX3cN03nGQKfEf+qlur1a5RrLG6YWa49F/PfpuHTH1g5J18T69MPHSovMPs6ZEzdu6RM3bvldNADHn7RjsfpAqYgweL3euPc+aO3XL63lLxsYvIWa5trWRaru9y3/X0yhm79soZu/aUt0+sDwQfE9N03dOjejxjx+6ydjj14EE5vdQtZ7/7npy5dYcudCWM2DiFcDBa9w4TmUJHp/b0ylmbt8pZXdtUn9DR6Xv3yZnbd5XVby69wVZ7SlLOVrDzqQf7dLyzN3TJ6bv3qt01+BwtfQ/XuMNNpkgU7G+kgkc/GDtzyw61MzDV1IFrXts3A5nCGOcvXiUXv9nuZRSVJtfTK6fv65ZJa971iTI985x46KBc+sJsuWjmQo94nX51QSNrda7Ze5D05IXL5ep7n5XLH39VJq3eoBG0fV/x1Y/Mr3jiNTn/7ZUCOSrekyJHzffUQKawCfR77sp3RBdLAfkm9vfLxa/Ok4tfnSt4n2sevb1y5o5dMmntxkR72OP8tzvlisdf9bOpZGB06qFDct7ytXLtHU/IDbfeLzf86CG54tGX5awtO/LJnzObyjWXArrK7G8YyPTUQwfl7E1b5KoHn5Mbbn1Abvjhg4rxs7bukEmr3pGrHnpeTuveX5NjBNbPX9QpVzz6ShCQunPUTKa7Ry55ZY7ccNtDcuOtD8h1P3tYLpq+QE7dn6/6oH1UU22qh12K9jEcZOr7v0unzZCr758mVz3wnFxzz9Myub1DTj14KLF+XP3nfV8u45zY1ycXzl6kGLr+tt/IhbPfFlSikLA0lW2K2rIZyBQO96IZC+TKh1/yHF+FLBLO/Zx3Nsu3/vwuOW/pKpnYnw4gXL/8ydfVsUecumWsGZnTxMP9cumLb8m1v3xMrnj4JXXMiKBzk4rvmK9+8DmZ3NaRKV9eYFfdrgYyVR28MFsue/rN/ITogxP3XvbcTLls2nTB+zzyKwbebJcb//o+QUavZVrrr79fJrctk6sfmJZKpiDbc1esk5u+d49ce9eTctH0drn4tXlKFtf/7BE5c8t2776sxQPntKekZJ5H1hFpU2cyRfZ55tadcv1PH5brf/wbuQTBzhttcu2vntCAb9LK9XLtHVNrJ9P+QzJ5/jIlaavuBPqCsz3YJ5dNmynf+ou75Iqpr6kjvvyJV+Vbf3anXPbsdK/kWyHD0orPHlR80oPoYLwse4/k9eEgUxzq2rtPrr39cbnmrqfkyodflKvve1YmL1whE+tBpvv2a9XgdA2sooGr+t51G5VIL3tmulz6/Cy5/sdTtNIB26IiccbuJrFNURw0C5leOGuRl3mgDHUgjHLc0o9mk9hnOXBAUGJA5nH2O12Bo3Rr+IiUQKYgg4tfny8TBg4HDhqO+5KX58hFb7anOnslkudnafR8yvGjctWDz2v7gLQ1CvP3mHzih0zBHpRPplf95gWZ3L7cI1PdQ/QXP77Xfb1YZhzptw6Ooloy9aP+a+58Uq77+SNaOg3s4Je/UVry5ussNn9eEwcOa0Xg0udnevq1ebn713a/PxbKu+ctW6PBDxyFlq78/iYMDGjUjcwpPqbKVepWxwI8wMHCfpDh7I1eFqaBEPYHsXhM975MGAd4OG/JKifz9XSveIvtK6pctghdZ256ccYIyMS+8+cayJFRGbHv63YACXM+eFCueOxVue6Xj6mjxHoAnrENgdI4dH/N3U+FZGp6cvdRcc2Zg5eNRDGNfhFAIlsK5u/ry4KeG79/r0xesNyzU3+/Vo2w/i9/+s3IPaH+/W0XHzMIkM8HcVgQrRlRbP/O7Jtmq8gc4E98bPj3RObl21PnYn0VeR0uMt1TUnud8+57MuH9I6rDICt0kpFg3e73ssZgrjYHXxfqO339nrltp1z5mxfkjO3RoBa41KB3xkLNiCccGdD1iPV12r5uleGyaTN0raptDPfAjYOjiK80OfDqY87WfrDWzC7wsf6a0T6cPiFbiBfHd2bIoGvMHTvP+2YkU5RwoSzs4cCxqpIOHJAzsBezc48HfihJDeA5czhZjYr8708v7QvIVEtIBw9qfwqanl658tFXBM4e0VRcsQGZvvSWnDz4kVzx+Cty8ettweJF35DvjJ27PaI5eFDLzQAhrp/mE76RKRwMxsA+ogLmQJ+gLfZylRx8Q2q/vQd0r1EJxeaYx9BpbaokUy/63KSO97qfPyrndq4PyuSwjeoL0eu2XcEi0Xnv79GyKhbcpS+9pfqFLjEvLAzMCTrQOXd7bdFXsMDNCeBVHfcBzabQHqXDNDLFWOcvXqlZKHQKh232DPvtldO6o32CQFSmUreW8C+cuUiu+fXTAZlgTMgb7L0iGyjt0+2FhGOFnbr3B1jF9yidmhwYS+0J3Tk21WuI/tNsV8fMFHPBHukNP3pQM3gEGjYm1taEw4flvKWrQzK1gNUwavvYmCP0FuC129MXnDDWK/Dfd0CJLkGmsCcI/dGX9Q+4CHRhztZKzN0eJoA1ZNOKrX2ennDt6l8/rWVG3V/Xe739V+zRK7b2Y499X/SsQoCtXp3D6fv2a1utSGwHjvu8uXXvVz+jsvk4NNvavAu9DjOZomw/4fhRDR6hJ8zH1athDHqBf9SqjwWI3T2e/zJf6xPiOes2aXAKzBh52ZwnHurXQOg6VHy27/LGBT5AePv26xq9aOYC7+wDbAabdvdoW/Shcuze62EFvtInc8iMsYChcG3uU6zZZ/h+rEFsJcB3Yq6KDeDFWa/oM5DbZNgfymBzKfzaTGR6+dTXVfkoH1zw1mLNiuBAoUwYDpEzSgrnLV2j1y5/6g09RAHncF7HGi1fXfeLR+WC+cu0zAhDogyBiBf7bajvAyiInFESxL4RSoJBhOs7CSz0S158S++5YM5iLVmduX2nYM8JciD6Qonsmrue1EV7zvrNSjw3/vX9cslr89SwMC7IVCPoQ4fkisde0ZIW+gYxY6/o2l88pntVmiGUulVWlLtResMhmjSiLwSAKslU5//KHJ0nMnjszYC0sB9zwfylWjaHjbDnpqWl/n5BSQj2uPGv7pNLQKQvzJJLX5wtE44ckUtemav71tfeOVXOXb5OF8iVj7wsN/7lvXLllBc1KEHAgf3Zy56doQsE+rv4zTaBTrH/dtHMRdoW193DZErcL8ySqx56IUqkfsY58TAysH45Dbro61N7o09sKVwwd4nu68J+N/zwAbnxB/fL5VNfU6d/zoYugbwoO1/y8lt67ex3NquNcIAHix9zh7PC4kbZFKVm7N2ixH3jX92rZUvs1180a5FgDMwDWIY8aHvZ0294c3EINrBvHckU4yETRFaqwZA5MMM79puNTNXhHfQw+oP7Betp0sp3NPs5t/MdrRxAl5DzsmfelHPWbtSqDwLWG35wv1z5yEu6/3nllBc8p+7PDc4NuoIMCIzUJv74sAswh3UMwlVi3r5L93ZhK+gQZXsEdRhH1+6PHpTzF62QCUffF2S1wCJK+sAXMjWsI8XmwGH1EfAPGNPWL3wDDmBdc+dU3cZBaRp4hd0xFvpEe6xB4Bn7kVWdfRguMt27T/3PlY++rFUg+LhzO9bKpc/NlHNXrpeJAwNy9uZt6sNOK3VrKR++84bbfuNtPR32dIG1jXVw/U8eVh8Fwr363mfkpr+6T665a6pXvrWqDuyFYH9vSc8mqL79QBu6uvi1+XLT936te+GwMTCOtXP5E6/J5c9MlwlHj8ik1e8Kts9u/MEDWjGErVEJ0LU5Y6GHoYdfUrxiLghyLn5lrq4vlLVxDgXVSFTNrr7nac2egZ2zNm1VfgBesF0AAsf18xavUvthXUNHbrAdrDUfhxU/Nx2Z7tuvpIh9gPOXrFQChEKwoOB48YrDSmfs2euRzuYtukiv/+kUdZBaYnrwOUHkBMeBDOmGWx+UC+cu0YgYBIeyBIjw6nueknM716khXUXCCCgN3/T9X8tN371bDXfm9t3eYsS+00+mKODgoBAtwUGghHbRjIVKklrCGhhQMkX5DIEBQIy9hPOWrVbZsNBB2Dgwo6eN9/fqnhU+Y46apaY52byG94Ff+DlTf0wcaMBiOGf9JnU4IAEQHoIIECZIFUHFtb96XB0ODiEAyEpQb7apji55da4uoKsefkmu++kjSqpwqFhYWFBoi/ki0EHJCIe1EDApsXaul5v+8l516he+tVjbwVEnyPTQQUEQdtlzM4KFos54206VEXutcITIRHCgCjaFc4S8OPgCPKDigWAHzgG2g4xX//oZJXbIpAFaW4dG0Vc9ME2dMOxzzd1Peu/3lnTPCpnR5EUr1KHovu2b7Yo93Qvs61OcXNDWIdg6wOK+9LlZiUAuwGE9yfRwv5ID5hTXH8aDgzEyBZnhsBeI8eLpCwT7mdALsg60gUMzMsUaOnfVBg0UEDyAhBB8wqZYq5ohOWSKqgT2bGEH29sDyU5atUGxcMG8ZXLuivWqEzg+HCLTwPj5WRrogDw1cP3Fo0q0Z3VtlUlrNmifIEMcervul49rxnL+klVK7HDg2GqBPwHJQv9XPP6armUcxMJ8gI/Ln3xDg2vg/dwVawX+5AxUUvbs1aB+0lrIXMVBwuEi01K3+jAQJOZ8w49/I+cvWC6XvDRbsXXKB8d0rcIOyDCxXYMAAX+wAbZAgFf4Jaw/+KPrb3tIbY/1hn6xTkCumv05fgcYMfLC3jd8AdYvsAB9Qq/4HmsJpIwgG2dcdM3cMVX9Hr6DHCBdj2Q36NrEgVFd77c/rmsKY6mdfvWEnpvAmkUFCbiAjwfeQORYl1eg/L9klVx3+2MaTGGdod2Nf3mf2nfS2o0JXx+sN2d+mdeakkx/9rBGVyd//IECA+SC6B6b7MhKJrw/EGSqKMOZw4PDB4jOWfOut+hL3eoQUVo6+aPjGtnikAWyBxgNi/+UY0e8EqCjTJApDiBd8cSrCjpkMTg1B1ABXDjAMalzvZw0+JEaE8SDCOrkD48pELRtX59c+dgrcumzMzQDRWSMKBqEcOVvXpRJazZqUKDZ3YLlGpEDiBfMW6rOVh2RI1Omgcu1qSIzhcOAQ4EsCBSwF6IZ5Yp1csqx9zXIQAnvlKPv+4v0UQ0GEM0imDjlA6/khINbmpkePSJXTXlRs9uTP/pAztqyXUkMmTdsctbmbYJSMso70BFsjIWJfTHoHw7wlGNH1VZYVHEyABFgXxwLFovKyAEHakCccPLIgFEuRLYM/U84ctiby2vz1K5YdMAQ9sZP+fCYnNexVkuikxd1auaFjBLEAbmQqV84Z7F3AO7P7tS9RgRIiJjxPfrAvKEr4FQj4iffUFxeMGeJBgsInoBDJZWsk951JlMELojmE/uBLpne87QSIPDr2fKY4hKn2kE4yHigByNTXMccsJaQfWC+aqvX21SvCTLdXVIH6G4bINu7/Jk39UDSt757t5Ie9ANMwCawB2yKDBKB0SnHjylRw/mf8tFx1TvkRcaDwBUkAAcLGVHVwlYMMpwbb31QnTlwApzhzAWIBOQMHCJjBeGA2FHNuPq+Z9TO5wKT9z7jVRBiGX2uNTlcZOrvmaKaAzm8kmefl/nd/pi3Ju+fplsgF81aqIkH9I72WNvwb6fv2SfX/2B+n9QAACAASURBVPxRtSF0gIADOEHgdM09T8npu0tq/7R5guTgiy95aY7c8IMH5OxNW4Mg8YK2ZXLyJx96wTKCr55e/U4J9MdTlPDg/1BNgi8BmSLgxD4tfC/WI5KZq+9/VsdHG3AAZMQ9OMB28uCHcvnTb2il4uyN7/kZ9zI5Z91GueypN+Ta2x/TIBG4RbKDOaBv3e4p5zPLfddsZIroBY7m7M1bBQdPAH4oFkSJxYssAeUZZBPIYuCEkQVgX1PLMv7eHDIOAAxlQ5QfJhx/X4Gkhyx6evU6Iq94ideUjvIwMkcQgEXUKC+AYCAfSAGOHu2Q/SKbAsAQ8eGEHTIhEMINP3xIj63jOxAugIEyLuQACcPBAWT4Dp8n4TGcaiLgNBBUQ6aHcbJ6oXcy9ldPqKwoq6FUC6JE9I+MFHM/+90u/f6s97ars9Po/dAhdUbI/OBk0Q7RMSLEU2CDjrVexAnZ8HfggOoETgyZMBwjCBKkhIWtZVqc1l35jhKhRsm2/+UvEETbsIk6b5QgcTrXf24SmSIiYNgQpUfIZeVEjIlACSSIigbGhh0R0Fj1AbaErZC5YmzYB+9BqrAlMIKSNyJsBGnX/GqqwAEDi1i86BdkDwJXDN/zlFw55SW9F6VG6CDNWWEO9TqABH3i0RfMCXu58QzLMlNkrlgz1979lOBgC3CINYi5wu4o90bI9L5nNUCFPqAzsxWIDUSm9rDqCvbEenqVmFDdCPZte7xHohCkoh+sGazva3FQCvulfX1qE5xvAB5gH/SN8UDecMDIRHQtYT3d9aQgaJlw7KgGTyi/I2MBnoBrBFPQuz5GdedUJQ7YFTrA+AikJhx738vU75yqWM06qJhqt/g6HGYynbR+k+/37HBOr+IYVQ+15959ctnzszQ4QUanfufOqXr4Epkp/A8CC6wBBP/QMXwc9Ijr8EvxeUJf3h9++OOg9onyO5IF6PDCt95WQsQrtnPgY7EWoP9gXcH/3f2UbnWgDyQYIH3gQvG6eoNWjTAObIxqicr4yMuaXcNG2GbA2offCPq960nFAnwO1hZwgiABfcbnUfhz05IpNtZBpk++7p2qRcZz8KCSKzIWl0xRZkBGg8UPYyBbxeKCQ1UyxWneY+/rwocBschxPReZfvyBbtqjvIDysJLpnVMFBIKICvufIHI4S4DpvOXrNKrDGAAWiByR4HlLVgeZC8pVMDQCBzgvlKPhaJVMV40imcLxweHdP00uf+p1XRQgH+wBQjaAHoENokglU+wrIoPdsVsXHzIJXMcfsjNkgi6ZQl/YY7vmjql6ihSLAzbCZwQh5y4H0XqEBqcHJ+71N6ABB6LSeGYKmfRwzV/fr6UqtEcbLB5EuJAdJSCMdcUjL8mlL/l9oqzsH2rCPUamwA8yICxgLLbT9+1TGWGn0/Z7+oFjRhaD4AoBHhwSvjfH4jl6Tw8Xv9HuZc3YEwS5zl8m/+JPfqn7wRopx52vfa4jmXpY65brfvGYdygMDgvBna8nED9KuDjYgyAQtoYtgGfV2+OvCg5oIViCk8XeOTJc7FmhdIZgAcGWZ6sjnl4fmBYlUwQ+eARu5kKt7GAdaQCK3/E9ckTXAHSKjBOBD0p42L+ceGRA9Ybq0gXzQKYDDpn6gdq8percsZ7gF4ApdchrNmh5GAEv9lJRckTwY2VFjAE5lNh7D6gPgWOG88cTBVc++LwGlcBm1QHuMJNp/DQvMAWC+faf/kozciWdZ6erD4W9zecgQ8Mz2Eqm8GUgU+i4HJni1HRvr5aPcfrdfB78ser1WIxMZ/tkigC7v18xBMI2PMJOWDewFXylVrLUf3hbPghWIbOSKfbHIeMjL4Vk+vSbiidUoa66f5rnR9WX+v1izDmLW5BMZy7SUpFmpjiAY2Q69TV14PiM0uD5i1ZqVK8O/O6nlNQQyWJDG9nPGXv26f4ZFgoiUGQNmpkamaJMBTJ9Zrpc8uLs7MwUpaupr2ntH5GwF5H36glW7AmBTBGJYy9AS7XtHXLWe9s0QwKwsEDh/FF6gkHhyBDlISoHSAAi3IvoSvdMu/drpIZsqeqFa47YXgtmpjhsAZmQ/ZuTwRxR9gFpovx70Yx2lRmOE8EF2uJ7ZA7IDlEug9PFyVEjQywG2EadFkp29zyl+kdblOCuvQMO+qDn0O99RhcNCAl9QB7oGs+PotqAxeUeQALhYTGCuFHOBUHixCLwceHMhVrqBTGg7IpIGSV6/YWkbTuVDGALOFcl0/ue1b6AJ5QZkaUAQyAK9AsCgrMCnkA8SjSPvaJ7TpqJ4hTz87Pk2tufUD2g/IS9YtgY90F2fdbzJ1NUR2XtXEcyVR3h+c+FK+Smv7hbsJeNZ28hC/bzUarFXiX2gCET7IbqCfSAjOD6Hz0kmAuqQFhX2OKAM70OGf/uvRroqK3Wb9KKDUgWetWTmpaZ6qntA1o6hG5B2DjQBZxh7xPtgTEEldATsiqcuMdnlNFxYA8VHCXTB5/T7BPBEg4aoS8QMEqNKBkDV6rb7h7tE9hDP/iRCCXLw4d1/WEuqCrh8BxIBAfQsO+H0jOwikASWIW/0D9bV0Veh5NMkYXPW6pBx6TVGzSJQCAA8sdBIARIKLvrNhgy/fe2qW4ue2aG2hZ6QiB7ppHpIy+pXmETlNXTMlOsNSQiyAShbwQ8WFNqm6NH9FxKkJnOelsrP7gH9kDwif13+Dj4eZAnKlUgfMxDcbahS2VEaR1BvZLpQ897h81Apg+/qKSsQcJTb8hFb7QLDlihlAt8A+vwsVjP3ppfrBUpyIDvavprmsx05sKATK+7PUqmKOPi8QcccMHpSiheM5o7kdG8pxEuylA3fedudYLInJAxwGAemc7zMlM4jDvzkSn2U2/67j26HwAiBWgm4ATc1h1BaROGhoNFGQilUIyPQ01wMDAeMhgYGECCc8IvPME5IzvW06O33q+OGAbGgkZJcTTJ1COKeRr9YV4GPBAFTp7qqdzpC6Jk+vNH1RbqaH/+iB4auuqh5zR70PI3yrwgU5QB/RPBWPg4XPKt79yt+sVeDrIgLHo9JIOfBdzXrRkl9Aonj0MSiEqh8ziZ4lEkLCiUbL/933+l+ydwnN/6zl26sKB/lIuAGT2p+L179BURNQIlJVP/hwbQDg4JJSkctMLBDpx0hMwINtAX3mvJ8ej76kRw6AElXsgGfCDAwKEHkD/mrqcIkZn2H1JiANnoA/Hl9uDqTKYgA8h30Rttuj+pc/vhg/pjCSCYsITr/YAFKj3f+u49ugYuerNNCQZzR9ACnN/0nXvkkpfxC1eHPFvdP03bXnPHE3rYA04vjYSwLlCdwGEXHF4Bod30l79Wh4yT9iAy6BIyqYy3PqCZPfbLQYpKpg+ATBcr4eE5WThd/UWnWx9UDIA49fGIQwflwjlLNOjD3FHyBYHgO8iBCgQOGAIr2LoANpRskUkhW3rCC+SxLmwtFH4dLjJFJeuOqZ4tvn+vfPu/36FYV1mRRDw7XbGo66W3V+cC/4ltJ8wThyGVTH8VJ9PFGuAoyaaUeZEQIFBFQnHT9+9Vv+f5WpxSPyRXoAw7e5FX5p21KCBT6A22hV/FOQY8WYF1goAcuobNYEdd7/c8rYcK7YzElSDThcu9zFTJdKH6c+yNwu8jqIJ/8dard2IZB0vhU3CYCWsQYxS2XZx8m4FMcVgAUTCyEJDNuave0XINHJtmJv7zToi0kCHoIsXpTEQ4KK/ht2B379VIDI4ZWSwICxvsyEL0eSn/OSvcA6XCiIjg7DCFq2iUIXDP+UtW68KHoeFIMC4cMvafvN/c9SPW3gO6CDUzxuk3PLva06v3IrqDISETZEM/APEFc5fqRjyyOt2X6N6vThpRoUb0cUNW87lgZopx4dBwKAi6D3QCfby3XecDvUB3+B46x6EU0w/uQ1SKuaI9dI+54VAASkqma+gAugchwb6qW33GbJdmSdAdnAB0AT3hxCbewwmr7VN0gfYg4MkLOvSwE7IryKbOxM+O8F51P2ex6hoZLLIyXNef1FvzrhK1PvrSe0AzU8io+ugLgwvYDDjAfOxHD4zgMRfoCFkN9pSxt45DLsAUgglsW2AvuaKDrjeZQmf+IwgoeUIGECMO40CncJAIErD+MAfNONs7vO+BI9hEtya6NUBExoq21qfaat5SXZPYi1NbpdgJmFIddW2Ti6ejyjFDAxdkR67Dg01gGzhD2EzXMX7JCj5h7UbFVzD2rj3qTCGTYtGwi98JxjO+eNbQ/71olRly+fPB3ikcMeaLygv0oPMHYaAaY/jMmEuwRrK+Hw4yxVjwF6s2eAfgOtaq71M/558ZOGPHLs8+VhEoYW0s15PNsA/m6PmyDfqqesXa37JdDx2qb9VndZ0fQPDnCP+G4BnBNcgM9rF1pv7jPe8Xx9RnrNsUrns/w4cfh84184Vf9Z8rxnrEelP/v3NP4Atgb90/h+0hY9c2He+cd7q0cgjZ8Qf/iv1y+B/MT/04/Na6jfXxqU1Bpr7B1SB+BKNO038YV8lG91y82rt+5y9KKBGkiSzgvGVr5ZQPj+siRcahSvYP/gQL38+4MJaNl7YgMCYiLRgFizZooz+wH/thZ/9H9+EgMaa1VYPiMxwUxrOxkf34mYrbd2KsrAWa93pRMoVOM/QCfWBP0Hvt8xaq/WMDtsiQqeMglt+H6td3zq5eoB98hxKy6USvQV5fR/pZ9RQ+e+h+Zzp2X7GfozazvUBEo85hpaBP53lG7RMyYkE6YwNjcO4qo/ucHeYKp2CYSCkB6txMD6q3Po94cYr39sfVCbqZvzuH4P1wkKkvO+aFueJPCQw6AtE681fyN4z6wYjKBh3rdedHF/z1a/bEvW5fwZwc3KqO/GxeKxZxHfvrW/uEbYApXUseGbt4CmXF88TOWjVb+fKjXUSWHm+LQNetyexjCI/ToJSv/bnzd+YQ6Svr+nCRKfSDcjQO9+ieJPZ5w8NCibnqvLx9e/3OfsQEp8kxP/hav4KDeaFv87Np8/Ts5+EnMq71kbamfHuozOorQ3l1THe9mz18HJjMgYzmUzFnzMXf7omsVyXpylhMm1/qtWYh01ThswAau46yEB6dQRnjmnuf0ePxOP2pjiLWtpZxmu5eALIV/z1TOIdaHOAwYAaEgcwA5X7FUdyxx8ccLjK1cRpBRyZDI9lKqyJ4tvF5ueS1+ZUrCKbPrNdhJNNR90dmv6y5j7Xrw06mKH+ZUkfr1S9fTV7Yqc8goUShkfFoydMo4yIr2ltK/8fBG8FujaKnEZADeMT++QVtHbonWHHN9B5IfzRmBGStKNtYlsEvZaOEebZfTqxJH6hw7diZ/o+Dcw2OPncUwXLfweH5x8HHt7XJ+EWL5KRlHXLSsmUN8Nch41etlD9avUrGd3Y2gDyNoJNlctLSpTK+vT38a2uTkxYtkpMbxm4NoqfhxvDSZTK+c4WMX9kpJy3NN+fxCxeGdoMNFywgrofbTn7/8CUnLV+e21ZlfeCSJVE7Yg2+vZhrcIRsWdY2hWToUM5T7nN8qlTx37iIU0ZnINT58/nX6DpwDK82pN2aA7Nxu+Fzo2ON8qXbKG5LrsF0PTU6fmC3mC2r4FIZd9KSJcI/6oAYIAaIAWKAGPAwUBWZXtbRIfyjDogBYoAYIAaIAQ8DVZHpl19/LfyjDogBYoAYIAaIAQ8DVZFpNTfxHmqAGqAGqAFqgBoINTAufMt31AA1QA1QA9QANVCNBqoi0/jJJ352HlOJnQqjbqgbYoAYIAbGPgZIpiS/xLFwLvyxv/BpY9qYGKgvBkimJFOSKTFADBADxECNGCCZ1qhARnf1je6oT+qTGCAGmhEDJFOSKSNSYoAYIAaIgRoxQDKtUYHNGEFRZkb+xAAxQAzUFwMkU5IpI1JigBggBoiBGjFQlkxH/d/WG2v/dh7nE/2HnKkP6oMYIAaaCAPlsnmSaRMZksFNDx0P8UoMEAOjhgGSKcE3auBjAMAAgBggBsYKBkimJFOSKTFADBADxECNGCCZ1qjAsRJVcR7MEIgBYoAYqB4DZcm03Jf8rr5Hp6lP6pMYIAaIgcbHQFbAUc5248p9ye8a3+i0EW1EDBADxEB9MUAyrfE5IQKyvoCkPqlPYoAYaEYMkExJpnzwmhggBogBYqBGDJBMa1RgM0ZQlJmRPzFADBAD9cUAyZRkyoiUGCAGiAFioEYMkExrVCCju/pGd9Qn9UkMEAPNiAGSKcmUESkxQAwQA8RAjRggmdaowGaMoCgzI39igBggBuqLAZIpyZQRKTFADBADxECNGCCZ1qhARnf1je6oT+qTGCAGmhEDJFOSKSNSYoAYIAaIgRoxQDKtUYHNGEFRZkb+xAAxQAzUFwMkU5IpI1JigBggBoiBGjFAMq1RgYzu6hvdUZ/UJzFADDQjBkimJFNGpMQAMUAMEAM1YoBkWqMCmzGCosyM/IkBYoAYqC8GSKYkU0akxAAxQAwQAzVigGRaowIZ3dU3uqM+qU9igBhoRgyQTEmmjEiJAWKAGCAGasQAybRGBTZjBEWZGfkTA8QAMVBfDJBMSaaMSIkBYoAYIAZqxADJtEYFMrqrb3TXFPrsLEmPiMhAFx0Q1w8xQAwoBkimBEKTOINOua004JEYiExEeoYG5LbOUSDzpiXTBtIh112TrLtRWF9Nig2SaZMarikyuLrptlOmDfkMmvLSU+ocWcc0gmR624A38Z6as+AG02HdsEFn31q+oHHtTTLloh5ZIqpG310DHoUOlSKZ6M1dA9IzVJKbq+kz9z1d0oHR3XGGhUxTxmlvl7qR6ajqsHEdIImItqkXBkimuZ0qQVcv0BXuxyeCEc9AFRspJDeCZFpYV1l4HlUdcu3UzY5Z9uX1UU8KSKYE4aiDsLKj8QlNhqSj1FUmE7V2A3Jbwq5W5vS/cwhRM1y/fNwzEGa6t/kJsVtZVkJ37h3fWZIOvwTt3hvOqVOzSz2wpB0NCUq2bjadOQ7mkEWCnV3BuCZf+WDDdFNJh0Z8leXG3O0gVpYOVQ8RWYeko6szMv/x7cmx0ux8c8lTdEeXk7Fbib/iGDYvvobYpC7qqQuSacLpEmD1BFjd+kJJ11gDh49ASCmHj8zhJoglTkpGBE6fwVt/fzKT5OzeoaGITHp/ZG8zSXjBGDg85WMvc5wsMo3pwvpMzDmO7dh9WToc355P7oBMTQD3NdCDBTHhl1E5c47V3i6BbYfCDXQQK8g4vqceHYNrum7rMI4pfg6SEZIpwRCAofEXnJfBhG4ZWVb88JE51iGZFpCtXQsJzCWCwPEaSYrTDsSCAdP2TEHqNn7KvQFJunu9nV2h4w8IB84+ZRxgMx4EWDsdO5rh5rNfZR3mljuYcxk9+G0CPUXWm9nFD47suwwdGZkK7BPYtl3MluljkEjz4YJ6qlVPJFNbwHxtLlJ1HpNJOFGfgILnQBOEFDrgCEkGGU5OMnUJNnGvlVXdvsxhGYm43+Uk0/jcqsZt9DGZUIcF5DYyzaWHIZnWFQt8Uu/P1pGRqZeNWju8mswpY1StH7d/vq+VaFrhfpIpF1sTkWjMqZkzjmSSaGNkJbo/55UA3UzVIdNIdmj3VSA5G7fcvdYmTKNT3rkyFSPTkPxiOimK50BOf87B5xRxg0u+3Na2nB4gj7OvLOLMOS3IceT3MuSwfTaZlhnD6a8VHDrnWON6qAEvJNMalEfgjgRwQXBDIs4eY6j3NPLzZTJHbwQQcfgjQKaWLcXHzcRbMTINsu7M/lzbFNGhL0ceuU3HkbZlbOIfNNIyLeS2+yOZrcmd7KcsmQZ6sDK2GxBZn3wN1w51UW9dkEyDRUhw1Rtc9erPnKgSarBXhjKlfxAl1RnjxKcxaZjdBDKZI69IBCkkl/NeGz9+etd7Pja272fkG59LInvz5XH3a3NguIgOc8udUw+BzoNDRGYPI8xie6bJMm907XpztTGi37my8D11U08MkExzOKJ6Kpx9VbOAQ6dr9Bi+4lGLjD5Tnb3fNvU7G8fNaqon07KnYt1yp2IwZRxcT5Cpd8092Wy6KF/6tblZa/c1rsMyJ2xdufPoMPLIio0Z0294ONcaeK+xwMICgoS9K46RgQ+u/ebd4mlA25FMG9AoJNw05+cfmHEcb6Xf5o3vuUX0mocIFBspJJf7Xswj/gwlsrDoLzl5cqWMg/HTyBTXUwikPJn6suDgVi4d5pA7px5udg6LRasLZuf4WMlncaGjTDLV75xHp0brN5vpS1qanEmmXABjcwGkOnpz3nyNBBZcA2NzDdCuI2pXkikBN6KAGyknXi6LGSkZOA6DFmKgdTBAMiWZjkEyzSiZ0tZj0Nat46xJzI1ta5IpHeyYc7DMShvb6ZAUaJ+xiAGSKcl0zJHpWFyonBMJiBhobAyQTEmmJFNigBggBoiBGjFAMq1RgYwWGztapH1oH2KAGBgJDJBMSaaMSIkBYoAYIAZqxADJtEYFjkTEwzEYWRMDxAAx0NgYIJmSTBmREgPEADFADNSIgSwyjf5GZvTTOEZIjR0h0T60DzFADBADI4sBkmmN0QgBO7KApb6pb2KAGGhEDJBMSaYs7xADxAAxQAzUiAGSaY0KbMQIiTIxcicGiAFiYGQxQDIlmTIiJQaIAWKAGKgRAyTTGhXI6G9koz/qm/omBoiBRsRA9Jxuvk88zUsCZhRLDBADxAAx4GAgH31GW5FMHQU2YoREmRi5EwPEADEwshiI0mS+TyRTkikjUmKAGCAGiAEHA/noM9qKZOookNHfyEZ/1Df1TQwQA42IgShN5vtEMiWZMiIlBogBYoAYcDCQjz6jrcZFP/ITNUANUAPUADVADRTVAMm0qMbYnhqgBqgBaoAaiGmAZBpTCD9SA9QANUANUANFNcA9U6dO3ogb4ZSJBzSIAWKAGBhZDBQlUrQnmZJMefCAGCAGiAFiwMEAydRRBiO5kY3kqG/qmxggBsYKBkimJFNGl8QAMUAMEAM1YoBkWqMCx0pUxXkwQyAGiAFioHoMkExJpoxIiQFigBggBmrEAMm0RgUykqs+kqPuqDtigBgYKxggmZJMGZESA8QAMUAM1IgBkmmNChwrURXnwQyBGCAGiIHqMUAyJZkyIiUGiAFigBioEQMk0xoVyEiu+kiOuqPuiAFiYKxggGRKMmVESgwQA8QAMVAjBkimNSpwrERVnAczBGKAGCAGqscAyZRkyoiUGCAGiAFioEYMkExrVCAjueojOeqOuiMGiIGxggGSKcmUESkxQAwQA8RAjRggmdaowLESVXEezBCIAWKAGKgeAyRTkikjUmKAGCAGiIEaMUAyrVGBjOSqj+SoO+qOGCAGxgoGSKYkU0akxAAxQAwQAzVigGRaowLHSlTFeTBDIAaIAWKgegyQTEmmzReRdpakB8gd6Go+2Yk32owYGJMYIJkS2DmB3Sm3lQY8EvNR0zM0ILd1Vh/JVR0FNy2ZNpAORwL3XQNJ/zI0JB1dnTkxNwrYGgm9cIwxaf8k2CtfGVe1EySImhREnTJtKBsYPaURdo4jSKa3DXgT76k5C24wHY7EWkwjU4NRzfosRrT1s2OxcekrW0dfBu0iryTTkXBEjTSGOcWhUiQTvblrQHqGSnLzsMraJR1ApzvOsJBpyjjt7VI3JzyqOhwlh+bP2Q22bu4sSYcfmHV0DYdcw2zHYcX6cOiDfY5UQFOERK0tybTVFlSKUxwpgI5vT3GOI0imdZvnqOpwlBxq1pyHxX42xxS8tNp65XxHpQJoBFnklWTacmD1HZQMSUepq0wmau0G5LaEjqzM6X/nOFTNcH0E9gyEme5tKVtumuU49453Mh333pAEOzW71ANLOsaQoGTrZtOZ42AOmYTQFWRYtnjcDCwcP+bkK+rQ2leWG3O3g1hZOlQ5Ol1ZvT1Ld/7j25Njpdn55pKXUiKjDDL2ciX+TN2FcnvyxT4rduqIl1Q7Rkn35q6SdAwMSIczn/BaFC+ebZM6i+MqiQGzLV/Hom7MDxR5JZkmiKIFFgdKug5K1HGkHD4yh5sglrhjNSJw+gze+vtpmSRn9w4NRWTS+yN7cS6JBL17b3B4yrdj5jipTtgjWFcX1nNiznGc5NShZuNZe9SO3AGZmgDua6AHI6Xwy6ic+XQE5xfYdigUrmypNm7z9k4BQXm6G5Jphh+zZyAz1pPJHQu+wmmE7yrhJdWOIZne5gcJ1qHqx5fdrkVPjufX2VgkDc4p3d8HWCnwhmQad5It89mLxkOsIFONHz4yJ+g4y7hjhL7MgYpI4NyDayHRlS3zVrg3IEl3r7ezKzxMFXHeoXONZG0JQrDsG3KnZSzpCy10QJV1mFvuQF9ldOi3CXQcwarZSqLZeoaOjExFcp7ijhNSCJzQ5i4WIvYw2ZJkGswlmH8FvGCMLDsiILNKRdAfrvkVkiCrD/Gc2z4RXVfCBb8P10hz6sKBd+63JNOWXyTRRzwC52Z6MSdqzjHhyBwydQ8WpZFuuT3Tsvca6bmO1hZpzFGr3DnJND43m3Ph1ywdFpDbnH8uPQzJtPgjKan3Z+vIyLRsNurqwXQVuJYhLwCxjNTamhyGF70es5G1KTtXyJ7TjtYOgYHJEeAvJE44eI887VoB+wT9mk752uyEWU7+AOYF3pBMuUi8DX5zcBGHBIdhjlD0mULvsRpzRr5DsXvLOVDVc4pzzHOvtSkLbFemlHEwfjwQiH+uFQuBnMkMLFt0X267t5IOnX1lEWfOFeYSJZGwzFuUTBFsWTaXCLygvzzzyNMmCy9pdjQyrUjOMTI1ObKNg6PnYQm7Vnzw/lE5TFSONLO+KwuJjC9Jpi0FcBDjkIi7VxfM30jTje5jZGkgijj8nA5Ux0khOXNokT7jsvj3RdqUywxSxsH4ccLxP0f30Mr1i++K6LCA3Ln04MpmJeYYcUcIxdrH9VkbmYYBVgrR5JlHnjZZeEmzY7VkavflxpXpk69ZJDRWrpurK/JK2KN88QAAG7NJREFUMtVF2zqLw8p7SqhBiQ5lSv8gSqoztoge0KrSgWY5x5yONciGbE/Mt5v3fGx83y8nmZozdfdrc+ChiA5zy51TD66z8uQwexhhFtszrSYz9WTwdZyoZNh1kwvE7R/lNmzlnmtBO1r/akPTRzQ4jGfoue2TAxeubfi+uX1qERK1tiTTllsk5mQMAu4rHrXIWASpDtBvm/qdjeM6sxTnWOTe8OCpK3QKwaeMAzvHM1P/WvHTvDa3mBj6Ma7DMqdF3cAkjx6CAzTuuDH9ZukoQjS1Zqa+3S2zz+jblRLvA2zlmauuy7x2TGtnNnL1Y0FhSPRlT1u79mk5P5HhB1pED3Hs5vlMMm0RcEQjZf/AjON4K/02bzyij/RXi3PMfS8Wt1fadMkPJzWTvymc5lwzyBT2TyGp1P3ACFaK6DCH3Dn1gCwvmH/q7ynHx3JOuDryW3YdEJzzXcS2dj0tEHEfsYmdBI/KGTswlXOuhQ8gRUg9L5kWwVVrE0wqLgwfY+w1D3nG25BMxxgIhgXwqc6PjmVYdE08Ns0hFdp/7PqAOFHm+UwypfOq6LwKZzHUaUWd0hGPXUdM2za/bfOQZ7wNyZSOv4LjzyiZUm8V9Nb8DoWkQBu2KgbiRJnnM8mUpFCWFJiV0qG2qkPlvFsX+3nIM96GZEoyLUumdCit61Boe9q+VTEQJ8o8n0mmJFOSKTFADBADxICDgTzkGW9DMnUU2KpRGOfNDIQYIAaIgRADcaLM85lkSjJlREoMEAPEADHgYCAPecbbkEwdBTIyCyMz6oK6IAaIgVbFQJwo83wmmZJMGZESA8QAMUAMOBjIQ57xNiRTR4GtGoVx3sxAiAFigBgIMRAnyjyfSaYkU0akxAAxQAwQAw4G8pBnvA3J1FEgI7MwMqMuqAtigBhoVQzEiTLPZ5IpyZQRKTFADBADxICDgTzkGW9DMnUU2KpRGOfNDIQYIAaIgRADcaLM85lkSjJlREoMEAPEADHgYCAPecbbkEwdBTIyCyMz6oK6IAaIgVbFQJwo83wmmZJMGZESA8QAMUAMOBjIQ57xNiRTR4GtGoVx3sxAiAFigBgIMRAnyjyfSaYkU0akxAAxQAwQAw4G8pBnvA3J1FEgI7MwMqMuqAtigBhoVQzEiTLPZ5IpyZQRKTFADBADxICDgTzkGW8zLn6Bn6kBaoAaoAaoAWqgmAZIpsX0xdbUADVADVAD1EBCA+PGte0W/lEHxAAxQAwQA8SAh4EEU+a4QDJlMMFgihggBogBYsDBQA7uTDQhmToKZFTGyJwYIAaIAWIgwZQ5LpBMSaaMSIkBYoAYIAYcDOTgzkQTkqmjQEakjEiJAWKAGCAGEkyZ4wLJlGTKiJQYIAaIAWLAwUAO7kw0IZk6CmREyoiUGCAGiAFiIMGUOS6QTEmmjEiJAWKAGCAGHAzk4M5EE5Kpo0BGpIxIiQFigBggBhJMmeMCyZRkyoiUGCAGiAFiwMFADu5MNCGZOgpkRMqIlBggBogBYiDBlDkukExJpoxIiQFigBggBhwM5ODORBOSqaNARqSMSIkBYoAYIAYSTJnjAsmUZMqIlBggBogBYsDBQA7uTDQhmToKZETKiJQYIAaIAWIgwZQ5LpBMSaaMSIkBYoAYIAYcDOTgzkQTkqmjQEakjEiJAWKAGCAGEkyZ4wLJlGTKiJQYIAaIAWLAwUAO7kw0IZk6CmREyoiUGCAGiAFiIMGUOS6QTEmmjEiJAWKAGCAGHAzk4M5EE5Kpo0BGpIxIiQFigBggBhJMmeMCyXQskmnncSnB+AP99Y82Nw8qrEqlnvr3XcAWk0snVI4Fm7nw6fyJAWKgvhjIwZ2JJiTTAg68noA1MihPSj0yRbnrhEzpLACWpifTHrmlVD4QMP2RTAvgogjW/aBp7Om3XxYMnpApm71g0HBU2zqsjNdxFfQ5uTQopeEIfovYnG2DBCHBlDkukExHDUD9skANNCi3ZMlQLSnmvO+WAS+7K7SIRyIz1THKBxDmBMees4+SY1U2ysJTkesVnH89A8uR7MvDjYutOqzDHHitRKbe965cURyMpI441u4c1JlsQjIt4mDq3LYSIdwyAINVscCamkwtGy9fpq6ku2IOwXeog8dlcp1tnF+OdBlIpvUkFR9bsQywEpbKr8N8eK1Ipm2+/WOy5cdPPfXEvpJUWfkKyXTUnCcAm+5AdQHlJMTUxVbLvZX0MdyZqd+/B93sQKKSA0zVS+bcytgh8556O5xGkMGZ01jMTP11kaxmlNF9pbWUE6+VyXS3eJguU6kaMSw6OGjRMStTZ7IFyXSUweJFvSLxBZ51fVxbjyBb0QNGas8TutcSyahcB9B5XBZ4Z4akNBDLvLKIsRP7SlGwBHtKWffkkSuHroMsoOQLkBGpR8jUmSMyeZStI/rAuJE5nZAFm3u0jenZna3N1R0jyBAjB69ithgclFs6zSkmbRqVwRsRY5WTwZywyRQGCbGx5YQsKMXm7eBg8ubBADMJHKTZJReZxmTInL9PVpJGFJbZxb+L9Z1h18o2cohB5xQfx/vebJB/Hbr3nZApFfBqdoz3H9pzt3htsgPISNs0m/FasOdZq65cf5D3Pcl0tAFoDs8tMaZdUzmTJBcYGo7M5hLc75Ku39IlpzRidJxu0LeIBM487R5k2DHyDe515TL5sl5NbpXRnGy6cwmcaMk/uRwM6L9x9dlmfYWNbD7mRMNvwrnaGKVBb28ZbUJnmOzT6+OELPD3osO2nqMMA6BwtOrINKe+TZ/hcOE7Fwdp9qhIpsXmH+gyEowYgYQ695xgzvm1hYFLuo0cIrW2EVw435uu3O/Trrm6su9z4DUXmfqVqghu3PH4vm5kWYlsw4WS/x3JtAEA6jn0kDTM8cQXVeD4B49rBqSA6Oz3T/w6e4y2yF0SDK45pJsgRssg4NxiWY7pKXHP7jCzqiSX9ZHxGteDOaC0R3xMR8hEkWXa4pi8OSRXI8xx/tyDz4nx08t84Rhexmlj4DX8LjwZqtedYCS0Xw69ZpX8E/oOSSySgdeCg4Q+QpIL5+AQT+H5416TO8R5eM3BZFsxPIV2SNrItRfeK77KBBFx/FnfWTqIty+HV/suqy9PVg8n2TiN2iA+P36un37yU2jYkmSa5khG+poRnS70dMce7K/mKZVZf26UHTgzx3HFHbX/OY28goUav8dIII9c5fRqMkecnTlgR2a/j7KOzvoK5m9kFiW+YE42h6C9tyizxzC5XGJwFrKvo8Bx5tFrhgzmhAMHm5ibM27cxqltTfakTkN9VCJT6yPn/M3ucT0ksIS5mK3S5LNxw++ybeTqBe/9eyP4irUxfZVdh/49kbbWT1K+QKdxTJhOIq/e/YGtI9/ZGHwNdDqM+gkpMv87kukwGiS/0W0RZpQIIaMt3rK29Z2btY04DhsjdEQJR53q3GKLN97GxsojVxlde1F+didxB+M50Qxnbo7TJcfYvmr0ud30ACbbUafo0p2br5M4mcbnEMVHugxFbRTJlsw2lXDgym7vyzr/gvO3Ps0uWi63PmI2NJmzoRA54Z5toxhubeyILjLaoNqRVqoP5uFkzxlyJmxdVp8mh6eTxL3OuFHM2H18rbdeMsxa9jLJtFGA6i82z1oO4QXy+c62rDPwF5U5pEhbc15O33FiNBki98UWavweyyTK3RPMIdaXXTd5y0LVkdspMwaEZX3h1fpzyTT43jvYIpFMOp3Ish216TJGBDaGr6NAtjx6NT3GZY7ru8LcvB/58HVlbSO2Mdmj+kw4o/gcbG76an3knL97r8lkto7IBnwUwHklHLjj5iLTMCPPXocOvmwOqa8x/ZbVp60LT68kU9PH6L2mmrTCRZJpZMGNnvGCMpS7zxmTzbK3yF4ZHAr26fyTlOoUzWFFHJU5QGeRxx21ObIyMiQyJduLwj2xU7QJuWLzMQceyabS2iTkjO5ZVtwzjfWZzGqLkml0fPs1HczHPTUbkGkevVqbSmRqpBDXd7k900o4iOlH7VLB+Vugoc9BR/asw1PD4fyj68pwnPUMtX2fB08mR9ZYhjG8ar9x/SbmbuskfigqnEM1eLV1U15OD4ck01DXrv1G8n0F3kz9mmSaWEyjaEh1YA7ZJWQrc8rR/XGHqsnUi8yzTp0qmFOITbOJrNO8rlyJ+ThRflknZw4u1E3gRAcyBnb7izwWY+sg7CvIhtx7KmY9JpP1Z68ZJULnYJK1xGvoONMJ3Zxw2A74LIMDdw55cZBmF9/Orqz6PiDmgvN3x0iVy113ZeYXw1OAgxy/0axtXf24Mrnvy61Dk71sP6YbB2MV9RmuhfKE6+qJ74eLYBO4z3GBZOouolF/3y9T4o8OJGSKP3+HjNA53Yv2tuADx4dFl73Ao44a9yedWdAmlUy9/qPPv6bIlZhLuPdU0YHExo040ch+aDJDxoLT3z61BeFm8SpTOpFFxkiRHTq150+168FB/Q3lzPvK6TV3ZmoONI6DlOdr8+IgbW55nH/R+fvjVMzstF18ful4ytR15pwyStOR9tnr0LLmoni1oMggGLy6a1R1nkc+wwBfSaYR4BIQwwUI9ktsNRwGUgl+hOzkjx0Ehg3mh/KVoUdIVw2mm5HGcRDsFHjDzLTFQTPSIOV4re0MC2WSdV+bfnWmbIl2tOzD/dJG8g0FODRoSjKt+4IdrcXIcRtpMVKWNDyml9NHVFcNWkr1ggyWeEcUC2V8f8CQBd6QTMsotFEMSznSHDOvNRsuRjcrNbzgPMBg8O+ZNooO+e+Zmn0a47UAhwZNSaYk0+Cn+BrFsVCOxnAotAPt0KoYCBiywBuSKcmUZEoMEAPEADHgYKAAhwZNSaaOAls1CuO8mYEQA8QAMRBiIGDIAm9IpiRTRqTEADFADBADDgYKcGjQlGTqKJCRWRiZURfUBTFADLQqBgKGLPCGZEoyZURKDBADxAAx4GCgAIcGTUmmjgJbNQrjvJmBEAPEADEQYiBgyAJvSKYkU0akxAAxQAwQAw4GCnBo0JRk6iiQkVkYmVEX1AUxQAy0KgYChizwhmRKMmVESgwQA8QAMeBgoACHBk1Jpo4CWzUK47yZgRADxAAxEGIgYMgCb0imJFNGpMQAMUAMEAMOBgpwaNCUZOookJFZGJlRF9QFMUAMtCoGAoYs8IZkSjJlREoMEAPEADHgYKAAhwZNSaaOAls1CuO8mYEQA8QAMRBiIGDIAm9IpiRTRqTEADFADBADDgYKcGjQlGTqKJCRWRiZURfUBTFADLQqBgKGLPBmXIG2bEoNUAPUADVADVADKRogmaYohZeoAWqAGqAGqIEiGiCZFtEW21ID1AA1QA1QAyka4J4p90x58IAYIAaIAWLAwUAKV1a8RDJ1FNiqm+2cNw+aEAPEADEQYqAic6Y0IJmSTBmREgPEADFADDgYSOHKipdIpo4CGZmFkRl1QV0QA8RAq2KgInOmNCCZkkwZkRIDxAAxQAw4GEjhyoqXSKaOAls1CuO8mYEQA8QAMRBioCJzpjQgmZJMGZESA8QAMUAMOBhI4cqKl0imjgIZmYWRGXVBXRADxECrYqAic6Y0IJmSTBmREgPEADFADDgYSOHKipdIpo4CWzUK47yZgRADxAAxEGKgInOmNCCZkkwZkRIDxAAxQAw4GEjhyoqXSKaOAhmZhZEZdUFdEAPEQKtioCJzpjQgmZJMGZESA8QAMUAMOBhI4cqKl0imjgJbNQrjvJmBEAPEADEQYqAic6Y0IJmSTBmREgPEADFADDgYSOHKipdIpo4CGZmFkRl1QV0QA8RAq2KgInOmNCCZkkwZkRIDxAAxQAw4GEjhyoqXSKaOAls1CuO8mYEQA8QAMRBioCJzpjQgmZJMGZESA8QAMUAMOBhI4cqKl0imjgIZmYWRGXVBXRADxECrYqAic6Y0IJmSTBmREgPEADFADDgYSOHKipdIpo4Cx2oUNrl0QoGwYHNrR9rUQ2vbf6yub86r/riuyJwpDUimdSLTWwag3RMypTPDsJsHVf2lUs+IR4CtQSI9ckupv6xuW0MPGfirE87LOm4f42MvaOuXBYMnZMrmcO3WZ71Xxuy4CjqdXBqU0kB53Je12UjgognHSOHKipdIpnUydH0W1/A4wpYgEXU6ZYKZtt3SEnpo2y23DHiViBF3shUcf7M6dQ83UWzVZb3nwGwlMvW+j8rWrHpuJLkrMmdKA5IpybRsNtdIAM+WpUemeIm/SJkovb5k2i8LsKAGj8vkOmEoe35ZQVa6DCTTLH1Vc93HVgxXtZNpPsxWJNM2HwMx+YpjqRrdjN17Uriy4iWSaZ0cYe2La/iAWV8SGT45q3YAfkbkoT07Sq+vHtKJrOo5VIXDRpDBwcNYzEw7j0tJROKl65rXe07MViZTq7gMyi1VYcixH+8PEouKzJnSgGRaJwBVv7h6tCyHBav/DQ7KLZ22QKKL2CWDIPuI7MF6fVlXktVXhoMY13k8ueebKEXVX95g7nJC93+KZnqB7kt+epoRpbv6w1wXWDabNW4n9spMmydkweYezUK98ey692p74e4Y5WwUzDnLRobLiAzhWOVkMAdsMoUEH7OdnJAFpf5oZu1jAxn+5M2DSiQYtTSQIwPPRaYxGTLn7wcKkkYSltXFv4v1nWHXyjZyCEbnFB8HpXRoJTtwy7aB13dwfwXMWj9xMg9tulu8NmVkMSzxNSDLiP5S9OKttGL/J5mmKLKSotO+T3NuaaaIOjhzCvGWJ2SBv+/lLiJzAqVBb08Md4XfF+tL5Y2VKPVahIj8PoNrxcYoL69LVLH5w8HmtYvj/Me1mXzpjsXkWVDyso3YqLGSrfUVtjLbpdnavrMx6mEjOMmAdEMxBGOVk8EcsMnk4TWnvk2fznjB2wAHDtm4dqpIpkmden1XwHskYDTyENVDuBZzzs/ZO0+3UXRuas/YOsGYafoP9OS8idrA79t0rPo0naRj1mwZrvOofIFtI74grQ2vhViprAvHhLnfkkxdZ1DD+2oWlzlejXCdk4JuRuAuorC9l7264Ai+8yN9+y6rr8QitQXuZgL+NZMhGAMReY3yBvoaPK6ZuMrb2Z9r79PmhlevH8cR+Q49be/UlR9ZpvUzeXNIroHz8+cefE5gI73EGo5Rxka59GeZGUgjlj0GsqTLYLYNZTeHjQzT6StN3wEOHLIKrlUIciqQaaibfPhJD45sLlFZiuAplCNpI8OEvWq/KUFEMF4FVxvaIHTgRTBrtrQ1aHJFXz0cpI0VbRfKwOvldVHBrKlfk0wDx1ReuZXAl1gg8X59RxMC3pyCQwTuPSmOyZxAcmGV7yv9Pv8e31FYG6DEZNQ5BVF5+THSFr31mZTXiCLqED0d2zhp38VsZE4+4uyy78+WZ7eg7KtZYDBfkzHq+EMcpBNZ9hgmV057lwkKKslgtjA7Jufm6tHk8vWd0APaxtq4OHXfp2A2lNX6yDl/6zeuB/9zMDdtZ7ZKw4yNG36XbSNXL868I/jy2hRf737fpt9In0kZA72V1anJ690f1Yl9x9dAl4apHK+pbFnhIsk0h2LzGKP44iqzgCCTv+hcIsp2AumOPZA7pS/9ThcqnJt//0C/n+khYo8fvKijvOZQyoIzw+k69vJ0nt1J3Ll4+svq159fQKaeDdw90+gzxOk6z7ZRQf2lkkbcMabLkCDTCn1FsGu2yevsHXvYuC5mAwxWIuQE3myupjdsadj7mA1N5mwoRPY3s21kY9qrP15EF953EZ25OrD3GTovitnyOo3KGcd7qHtrx9e8OikLpYwvSaYG/hpfiy+uDMdgcviL0XVM2U6geF8eqOw+oMN3UK5jcoklcIYxR1aVvCF55wV3op0rZwa4xS1ZO3tlrk6Dfq2/yJzN+XgHW6L9pRNZ3Wzk2z+tXB3IbI9FxGWOO/IKc/MeK4plphECMZyE2V0og+ko3MtM1W8V+AnGMPnNzhHZMH4xPGXbyJmL4tqfd2K8lO0FWwf2GrcBrsfnYfOJvMZ0nOIHAr3YWL5uSaZx+1X/OWKSnB9IpgEgq1c8wF2cTMMTu0X3TNOclTmIvH3ZggzuCxyyOc6w3Jtom2vPL5xfmrwWoUf28EB4OHQT2/e18d3XWvVdcc80hgtPT24gUZRMQ33ks5Hfv1N2d+fvvU+XwbKZ0Lk6Ns27ZxohELs/5uhjOrJx0+wNeQOs5cSPO1/DSxD0xca27/PgyeTIkjMxbrA2Qh9RDf6quaeSTl0chPYO5XTnwvf59ZKTPyPNSKaxRVkt4KpaKEG0HrGJZonlTvOmOwFzePn6CufpOeRInxoNpznOYmOUd1plTl9alpxlG4vwU5xcOC+TNZxHIM9A8LxLVFlufymPpNSWmWIhm0zRYUEQafaGI806zevNMy+ZYuwy+o7M2987roFM47MLs+uC83ftbzaPyOU6xzLzi+EpwEGO36rWtq5+fJkKr3eTP6Wvcpg1Ms3WaZjxRtawqzu+Dw4bhrp2sZN8n9B3jgsk0zoBrfDiCsa1EqJvrcFBfdYzbcGnXYuCI9lX1jOr7n2TS8djj6L0y5T44wjDKK9LGHieETK78sXfe7p2HwvKaB8rtUX0F3nONHbK1Z+r/u6pLaJEtpxOZJExAp258iVthL3YzPtSSD3MQNJlMAcctrPxvbFDfac812tOP0JaRoJhYBK3iX729W0qC15jfdnzt/p9Gby7Y1RcX6rr+Py852PjeMrUdZq9dE5uRcLTZUV5YtirFrNmy0CX9sbVaYaMrv743tZAvldTc5FXkmnaAuK1smTGhZlvQVJPddJTKsHXqe9Ka90fOxmYjND4leSzLaayGW/jyNosa6IIiVpbkmkOsDYLACgnncZYxEChTLLu69nPyhuWrLzqRCOTfTNi0giyyCvJtO6Ljw69GRcPZW5U3GaUskdy3TZwGdULNJJlaOK5NjwXIVFrSzIdyUXJsVg+JgYKYWB0s1JzyDjcNBj51a9GISv+e6Zmo/q+GkEWeSWZ0rkVcm6N4kQoR32dB/VJfRIDIQaKkKi1JZmSTEmmxAAxQAwQAw4GjCCLvJJMHQUyMgsjM+qCuiAGiIFWxUARErW2JFOSKSNSYoAYIAaIAQcDRpBFXkmmjgJbNQrjvJmBEAPEADEQYqAIiVpbkinJlBEpMUAMEAPEgIMBI8giryRTR4GMzMLIjLqgLogBYqBVMVCERK0tyZRkyoiUGCAGiAFiwMGAEWSRV5Kpo8BWjcI4b2YgxAAxQAyEGChCotaWZEoyZURKDBADxAAx4GDACLLIK8nUUSAjszAyoy6oC2KAGGhVDBQhUWtLMiWZMiIlBogBYoAYcDBgBFnklWTqKLBVozDOmxkIMUAMEAMhBoqQqLUlmZJMGZESA8QAMUAMOBgwgizySjJ1FMjILIzMqAvqghggBloVA0VI1NqSTEmmjEiJAWKAGCAGHAwYQRZ5JZk6CmzVKIzzZgZCDBADxECIgSIkam3/fyMYogJ2MR2NAAAAAElFTkSuQmCC;fontColor=default;" vertex="1" parent="1">
          <mxGeometry x="644" y="120" width="498.33" height="318" as="geometry" />
        </mxCell>
        <mxCell id="cMiXQTPa7QHdeF7Lkv3R-76" value="&lt;font&gt;Data Acquisition&lt;/font&gt;" style="text;html=1;strokeColor=#666666;fillColor=#F5F5F5;align=center;verticalAlign=middle;whiteSpace=wrap;rounded=0;shadow=1;glass=1;sketch=0;fontFamily=Verdana;fontSize=12;fontColor=default;" vertex="1" parent="1">
          <mxGeometry x="620" y="390" width="74" height="30" as="geometry" />
        </mxCell>
        <mxCell id="cMiXQTPa7QHdeF7Lkv3R-77" value="Microservices;&lt;br&gt;Data Flow" style="text;html=1;strokeColor=#666666;fillColor=#F5F5F5;align=center;verticalAlign=middle;whiteSpace=wrap;rounded=0;shadow=1;glass=1;sketch=0;fontFamily=Verdana;fontSize=12;fontColor=default;" vertex="1" parent="1">
          <mxGeometry x="1070" y="77" width="114" height="30" as="geometry" />
        </mxCell>
        <mxCell id="cMiXQTPa7QHdeF7Lkv3R-78" value="&lt;font&gt;Microservices;&lt;br&gt;Data Flow&lt;/font&gt;" style="text;html=1;strokeColor=#666666;fillColor=#F5F5F5;align=center;verticalAlign=middle;whiteSpace=wrap;rounded=0;shadow=1;glass=1;sketch=0;fontFamily=Verdana;fontSize=12;fontColor=default;" vertex="1" parent="1">
          <mxGeometry x="600" y="77" width="104" height="30" as="geometry" />
        </mxCell>
        <mxCell id="cMiXQTPa7QHdeF7Lkv3R-79" value="" style="edgeStyle=elbowEdgeStyle;elbow=vertical;endArrow=none;html=1;rounded=0;labelBackgroundColor=default;fontColor=default;startSize=6;strokeColor=#000000;strokeWidth=1;jumpSize=6;dashed=1;" edge="1" parent="1">
          <mxGeometry width="50" height="50" relative="1" as="geometry">
            <mxPoint x="810" y="121.00000000000011" as="sourcePoint" />
            <mxPoint x="704" y="88" as="targetPoint" />
            <Array as="points">
              <mxPoint x="520" y="88" />
            </Array>
          </mxGeometry>
        </mxCell>
        <mxCell id="cMiXQTPa7QHdeF7Lkv3R-80" value="" style="group;fontColor=#FFFFFF;aspect=fixed;fillColor=#99CCFF;" vertex="1" connectable="0" parent="1">
          <mxGeometry x="1150" y="190" width="868.4200000000001" height="219.11" as="geometry" />
        </mxCell>
        <mxCell id="cMiXQTPa7QHdeF7Lkv3R-81" value="" style="rounded=0;whiteSpace=wrap;html=1;fillColor=#b1ddf0;strokeColor=#FFFFFF;fontColor=default;" vertex="1" parent="cMiXQTPa7QHdeF7Lkv3R-80">
          <mxGeometry width="860" height="70" as="geometry" />
        </mxCell>
        <mxCell id="cMiXQTPa7QHdeF7Lkv3R-82" value="Vehicle Setting" style="rounded=1;whiteSpace=wrap;html=1;fillColor=#44ADD8;fontColor=#FFFFFF;strokeColor=#000000;" vertex="1" parent="cMiXQTPa7QHdeF7Lkv3R-80">
          <mxGeometry x="9.170444444444446" y="3.6671129707112984" width="91.70444444444442" height="27.503347280334737" as="geometry" />
        </mxCell>
        <mxCell id="cMiXQTPa7QHdeF7Lkv3R-83" value="Radio" style="rounded=1;whiteSpace=wrap;html=1;fillColor=#44ADD8;fontColor=default;strokeColor=#000000;" vertex="1" parent="cMiXQTPa7QHdeF7Lkv3R-80">
          <mxGeometry x="9.170444444444446" y="40.33824267782426" width="91.70444444444442" height="27.503347280334737" as="geometry" />
        </mxCell>
        <mxCell id="cMiXQTPa7QHdeF7Lkv3R-84" value="User Setting" style="rounded=1;whiteSpace=wrap;html=1;fillColor=#44ADD8;fontColor=default;strokeColor=#000000;" vertex="1" parent="cMiXQTPa7QHdeF7Lkv3R-80">
          <mxGeometry x="110.04533333333335" y="3.6671129707112984" width="91.70444444444442" height="27.503347280334737" as="geometry" />
        </mxCell>
        <mxCell id="cMiXQTPa7QHdeF7Lkv3R-85" value="HVAC" style="rounded=1;whiteSpace=wrap;html=1;fillColor=#44ADD8;fontColor=default;strokeColor=#000000;" vertex="1" parent="cMiXQTPa7QHdeF7Lkv3R-80">
          <mxGeometry x="110.04533333333335" y="40.33824267782426" width="91.70444444444442" height="27.503347280334737" as="geometry" />
        </mxCell>
        <mxCell id="cMiXQTPa7QHdeF7Lkv3R-86" value="Online Media" style="rounded=1;whiteSpace=wrap;html=1;fillColor=#44ADD8;fontColor=default;strokeColor=#000000;" vertex="1" parent="cMiXQTPa7QHdeF7Lkv3R-80">
          <mxGeometry x="210.9202222222222" y="3.6671129707112984" width="91.70444444444442" height="27.503347280334737" as="geometry" />
        </mxCell>
        <mxCell id="cMiXQTPa7QHdeF7Lkv3R-87" value="Voice Assistant" style="rounded=1;whiteSpace=wrap;html=1;fillColor=#44ADD8;fontColor=default;strokeColor=#000000;" vertex="1" parent="cMiXQTPa7QHdeF7Lkv3R-80">
          <mxGeometry x="210.9202222222222" y="40.33824267782426" width="91.70444444444442" height="27.503347280334737" as="geometry" />
        </mxCell>
        <mxCell id="cMiXQTPa7QHdeF7Lkv3R-88" value="HD Maps" style="rounded=1;whiteSpace=wrap;html=1;fillColor=#44ADD8;fontColor=default;strokeColor=#000000;" vertex="1" parent="cMiXQTPa7QHdeF7Lkv3R-80">
          <mxGeometry x="311.795111111111" y="3.6671129707112984" width="91.70444444444442" height="27.503347280334737" as="geometry" />
        </mxCell>
        <mxCell id="cMiXQTPa7QHdeF7Lkv3R-89" value="Haptic Input" style="rounded=1;whiteSpace=wrap;html=1;fillColor=#44ADD8;fontColor=#FFFFFF;strokeColor=#000000;" vertex="1" parent="cMiXQTPa7QHdeF7Lkv3R-80">
          <mxGeometry x="311.795111111111" y="40.33824267782426" width="91.70444444444442" height="27.503347280334737" as="geometry" />
        </mxCell>
        <mxCell id="cMiXQTPa7QHdeF7Lkv3R-90" value="" style="rounded=0;whiteSpace=wrap;html=1;fillColor=#1E7898;strokeColor=#FFFFFF;fontColor=default;" vertex="1" parent="cMiXQTPa7QHdeF7Lkv3R-80">
          <mxGeometry y="68.76" width="860" height="150.35" as="geometry" />
        </mxCell>
        <mxCell id="cMiXQTPa7QHdeF7Lkv3R-91" value="Scene Detection" style="rounded=1;whiteSpace=wrap;html=1;fillColor=#2187ab;fontColor=#FFFFFF;strokeColor=default;" vertex="1" parent="cMiXQTPa7QHdeF7Lkv3R-80">
          <mxGeometry x="9.170444444444446" y="82.51004184100422" width="91.70444444444442" height="27.503347280334737" as="geometry" />
        </mxCell>
        <mxCell id="cMiXQTPa7QHdeF7Lkv3R-92" value="Music Player" style="rounded=1;whiteSpace=wrap;html=1;fillColor=#2187ab;fontColor=#FFFFFF;strokeColor=default;" vertex="1" parent="cMiXQTPa7QHdeF7Lkv3R-80">
          <mxGeometry x="110.04533333333335" y="82.51004184100422" width="91.70444444444442" height="27.503347280334737" as="geometry" />
        </mxCell>
        <mxCell id="cMiXQTPa7QHdeF7Lkv3R-93" value="Radio, Tuner" style="rounded=1;whiteSpace=wrap;html=1;fillColor=#2187ab;fontColor=#FFFFFF;strokeColor=default;" vertex="1" parent="cMiXQTPa7QHdeF7Lkv3R-80">
          <mxGeometry x="210.9202222222222" y="82.51004184100422" width="91.70444444444442" height="27.503347280334737" as="geometry" />
        </mxCell>
        <mxCell id="cMiXQTPa7QHdeF7Lkv3R-94" value="HVAC" style="rounded=1;whiteSpace=wrap;html=1;fillColor=#2187ab;fontColor=#FFFFFF;strokeColor=default;" vertex="1" parent="cMiXQTPa7QHdeF7Lkv3R-80">
          <mxGeometry x="311.795111111111" y="82.51004184100422" width="91.70444444444442" height="27.503347280334737" as="geometry" />
        </mxCell>
        <mxCell id="cMiXQTPa7QHdeF7Lkv3R-95" value="Cabin Light" style="rounded=1;whiteSpace=wrap;html=1;fillColor=#2187ab;fontColor=#FFFFFF;strokeColor=default;" vertex="1" parent="cMiXQTPa7QHdeF7Lkv3R-80">
          <mxGeometry x="412.66999999999996" y="82.51004184100422" width="91.70444444444442" height="27.503347280334737" as="geometry" />
        </mxCell>
        <mxCell id="cMiXQTPa7QHdeF7Lkv3R-96" value="User Behaviour" style="rounded=1;whiteSpace=wrap;html=1;fillColor=#2187ab;fontColor=#FFFFFF;strokeColor=default;" vertex="1" parent="cMiXQTPa7QHdeF7Lkv3R-80">
          <mxGeometry x="513.5448888888889" y="82.51004184100422" width="91.70444444444442" height="27.503347280334737" as="geometry" />
        </mxCell>
        <mxCell id="cMiXQTPa7QHdeF7Lkv3R-97" value="Multi-profile Management" style="rounded=1;whiteSpace=wrap;html=1;fillColor=#2187ab;fontColor=#FFFFFF;strokeColor=default;" vertex="1" parent="cMiXQTPa7QHdeF7Lkv3R-80">
          <mxGeometry x="614.4197777777775" y="82.51004184100422" width="91.70444444444442" height="27.503347280334737" as="geometry" />
        </mxCell>
        <mxCell id="cMiXQTPa7QHdeF7Lkv3R-98" value="Text2Speech" style="rounded=1;whiteSpace=wrap;html=1;fillColor=#2187ab;fontColor=#FFFFFF;strokeColor=default;" vertex="1" parent="cMiXQTPa7QHdeF7Lkv3R-80">
          <mxGeometry x="9.170444444444446" y="139.80868200836818" width="91.70444444444442" height="27.503347280334737" as="geometry" />
        </mxCell>
        <mxCell id="cMiXQTPa7QHdeF7Lkv3R-99" value="" style="rounded=1;whiteSpace=wrap;html=1;fillColor=#2187ab;fontColor=default;" vertex="1" parent="cMiXQTPa7QHdeF7Lkv3R-80">
          <mxGeometry x="715.2946666666666" y="82.51004184100422" width="55.02266666666667" height="27.503347280334737" as="geometry" />
        </mxCell>
        <mxCell id="cMiXQTPa7QHdeF7Lkv3R-100" value="" style="rounded=1;whiteSpace=wrap;html=1;fillColor=#2187ab;fontColor=default;" vertex="1" parent="cMiXQTPa7QHdeF7Lkv3R-80">
          <mxGeometry x="724.465111111111" y="91.67782426778244" width="55.02266666666667" height="27.503347280334737" as="geometry" />
        </mxCell>
        <mxCell id="cMiXQTPa7QHdeF7Lkv3R-101" value="service" style="rounded=1;whiteSpace=wrap;html=1;fillColor=#2187ab;fontColor=#FFFFFF;strokeColor=default;" vertex="1" parent="cMiXQTPa7QHdeF7Lkv3R-80">
          <mxGeometry x="733.6355555555554" y="100.84560669456064" width="55.02266666666667" height="27.503347280334737" as="geometry" />
        </mxCell>
        <mxCell id="cMiXQTPa7QHdeF7Lkv3R-102" value="" style="endArrow=none;dashed=1;html=1;rounded=0;fontFamily=Helvetica;fontSize=16;fontColor=default;strokeColor=#FFFFFF;strokeWidth=1;fillColor=#FF0000;gradientColor=none;entryX=1;entryY=0.443;entryDx=0;entryDy=0;exitX=0;exitY=0.5;exitDx=0;exitDy=0;entryPerimeter=0;" edge="1" parent="cMiXQTPa7QHdeF7Lkv3R-80" target="cMiXQTPa7QHdeF7Lkv3R-90">
          <mxGeometry width="50" height="50" relative="1" as="geometry">
            <mxPoint y="132.93284518828455" as="sourcePoint" />
            <mxPoint x="806.999111111111" y="132.93284518828455" as="targetPoint" />
          </mxGeometry>
        </mxCell>
        <mxCell id="cMiXQTPa7QHdeF7Lkv3R-103" value="Diagnostic" style="rounded=1;whiteSpace=wrap;html=1;fillColor=#2187ab;fontColor=#FFFFFF;strokeColor=default;" vertex="1" parent="cMiXQTPa7QHdeF7Lkv3R-80">
          <mxGeometry x="110.04533333333335" y="139.80868200836818" width="91.70444444444442" height="27.503347280334737" as="geometry" />
        </mxCell>
        <mxCell id="cMiXQTPa7QHdeF7Lkv3R-104" value="Position" style="rounded=1;whiteSpace=wrap;html=1;fillColor=#2187ab;fontColor=#FFFFFF;strokeColor=default;" vertex="1" parent="cMiXQTPa7QHdeF7Lkv3R-80">
          <mxGeometry x="210.9202222222222" y="138.89190376569036" width="91.70444444444442" height="27.503347280334737" as="geometry" />
        </mxCell>
        <mxCell id="cMiXQTPa7QHdeF7Lkv3R-105" value="Vehicle Info" style="rounded=1;whiteSpace=wrap;html=1;fillColor=#2187ab;fontColor=#FFFFFF;strokeColor=default;" vertex="1" parent="cMiXQTPa7QHdeF7Lkv3R-80">
          <mxGeometry x="311.795111111111" y="138.89190376569036" width="91.70444444444442" height="27.503347280334737" as="geometry" />
        </mxCell>
        <mxCell id="cMiXQTPa7QHdeF7Lkv3R-106" value="Perception" style="rounded=1;whiteSpace=wrap;html=1;fillColor=#2187ab;fontColor=#FFFFFF;strokeColor=default;" vertex="1" parent="cMiXQTPa7QHdeF7Lkv3R-80">
          <mxGeometry x="412.66999999999996" y="138.89190376569036" width="91.70444444444442" height="27.503347280334737" as="geometry" />
        </mxCell>
        <mxCell id="cMiXQTPa7QHdeF7Lkv3R-107" value="OTA" style="rounded=1;whiteSpace=wrap;html=1;fillColor=#2187ab;fontColor=#FFFFFF;strokeColor=default;" vertex="1" parent="cMiXQTPa7QHdeF7Lkv3R-80">
          <mxGeometry x="513.5448888888889" y="138.89190376569036" width="91.70444444444442" height="27.503347280334737" as="geometry" />
        </mxCell>
        <mxCell id="cMiXQTPa7QHdeF7Lkv3R-108" value="FaceId Detection" style="rounded=1;whiteSpace=wrap;html=1;fillColor=#2187ab;fontColor=#FFFFFF;strokeColor=default;" vertex="1" parent="cMiXQTPa7QHdeF7Lkv3R-80">
          <mxGeometry x="614.4197777777775" y="138.89190376569036" width="91.70444444444442" height="27.503347280334737" as="geometry" />
        </mxCell>
        <mxCell id="cMiXQTPa7QHdeF7Lkv3R-109" value="Digital Media Streaming" style="rounded=1;whiteSpace=wrap;html=1;fillColor=#2187ab;fontColor=#FFFFFF;strokeColor=default;" vertex="1" parent="cMiXQTPa7QHdeF7Lkv3R-80">
          <mxGeometry x="715.2946666666666" y="138.89190376569036" width="91.70444444444442" height="27.503347280334737" as="geometry" />
        </mxCell>
        <mxCell id="cMiXQTPa7QHdeF7Lkv3R-110" value="" style="rounded=1;whiteSpace=wrap;html=1;fillColor=#44ADD8;fontColor=default;strokeColor=#000000;" vertex="1" parent="cMiXQTPa7QHdeF7Lkv3R-80">
          <mxGeometry x="421.8404444444444" y="13.751673640167368" width="55.02266666666667" height="27.503347280334737" as="geometry" />
        </mxCell>
        <mxCell id="cMiXQTPa7QHdeF7Lkv3R-111" value="" style="rounded=1;whiteSpace=wrap;html=1;fillColor=#44ADD8;fontColor=default;strokeColor=#000000;" vertex="1" parent="cMiXQTPa7QHdeF7Lkv3R-80">
          <mxGeometry x="431.01088888888887" y="22.91945606694561" width="55.02266666666667" height="27.503347280334737" as="geometry" />
        </mxCell>
        <mxCell id="cMiXQTPa7QHdeF7Lkv3R-112" value="app" style="rounded=1;whiteSpace=wrap;html=1;fillColor=#44ADD8;fontColor=#FFFFFF;strokeColor=#000000;" vertex="1" parent="cMiXQTPa7QHdeF7Lkv3R-80">
          <mxGeometry x="440.1813333333334" y="32.087238493723845" width="55.02266666666667" height="27.503347280334737" as="geometry" />
        </mxCell>
        <mxCell id="cMiXQTPa7QHdeF7Lkv3R-113" value="" style="endArrow=none;dashed=1;html=1;rounded=0;fontFamily=Helvetica;fontSize=16;fontColor=default;strokeColor=#FFFFFF;strokeWidth=1;fillColor=#FF0000;gradientColor=none;entryX=1;entryY=0.443;entryDx=0;entryDy=0;exitX=0;exitY=0.5;exitDx=0;exitDy=0;entryPerimeter=0;" edge="1" parent="cMiXQTPa7QHdeF7Lkv3R-80">
          <mxGeometry width="50" height="50" relative="1" as="geometry">
            <mxPoint y="174.18786610878666" as="sourcePoint" />
            <mxPoint x="825.3399999999999" y="176.61916200836833" as="targetPoint" />
          </mxGeometry>
        </mxCell>
        <mxCell id="cMiXQTPa7QHdeF7Lkv3R-114" value="Car Common Services" style="rounded=1;whiteSpace=wrap;html=1;fillColor=#2187ab;fontColor=#FFFFFF;strokeColor=default;" vertex="1" parent="cMiXQTPa7QHdeF7Lkv3R-80">
          <mxGeometry x="9.170444444444446" y="183.35564853556488" width="91.70444444444442" height="27.503347280334737" as="geometry" />
        </mxCell>
        <mxCell id="cMiXQTPa7QHdeF7Lkv3R-115" value="FuSa Services" style="rounded=1;whiteSpace=wrap;html=1;fillColor=#2187ab;fontColor=#FFFFFF;strokeColor=default;" vertex="1" parent="cMiXQTPa7QHdeF7Lkv3R-80">
          <mxGeometry x="110.04533333333335" y="183.35564853556488" width="91.70444444444442" height="27.503347280334737" as="geometry" />
        </mxCell>
        <mxCell id="cMiXQTPa7QHdeF7Lkv3R-116" value="Location Services" style="rounded=1;whiteSpace=wrap;html=1;fillColor=#2187ab;fontColor=#FFFFFF;strokeColor=default;" vertex="1" parent="cMiXQTPa7QHdeF7Lkv3R-80">
          <mxGeometry x="210.9202222222222" y="183.35564853556488" width="91.70444444444442" height="27.503347280334737" as="geometry" />
        </mxCell>
        <mxCell id="cMiXQTPa7QHdeF7Lkv3R-117" value="ADAS Services" style="rounded=1;whiteSpace=wrap;html=1;fillColor=#2187ab;fontColor=#FFFFFF;strokeColor=default;" vertex="1" parent="cMiXQTPa7QHdeF7Lkv3R-80">
          <mxGeometry x="311.795111111111" y="183.35564853556488" width="91.70444444444442" height="27.503347280334737" as="geometry" />
        </mxCell>
        <mxCell id="cMiXQTPa7QHdeF7Lkv3R-118" value="Voice Services" style="rounded=1;whiteSpace=wrap;html=1;fillColor=#2187ab;fontColor=#FFFFFF;strokeColor=default;" vertex="1" parent="cMiXQTPa7QHdeF7Lkv3R-80">
          <mxGeometry x="412.66999999999996" y="183.35564853556488" width="91.70444444444442" height="27.503347280334737" as="geometry" />
        </mxCell>
        <mxCell id="cMiXQTPa7QHdeF7Lkv3R-119" value="Vision Services" style="rounded=1;whiteSpace=wrap;html=1;fillColor=#2187ab;fontColor=#FFFFFF;strokeColor=default;" vertex="1" parent="cMiXQTPa7QHdeF7Lkv3R-80">
          <mxGeometry x="513.5448888888889" y="183.35564853556488" width="91.70444444444442" height="27.503347280334737" as="geometry" />
        </mxCell>
        <mxCell id="cMiXQTPa7QHdeF7Lkv3R-120" value="SOA Services" style="rounded=1;whiteSpace=wrap;html=1;fillColor=#2187ab;fontColor=#FFFFFF;strokeColor=default;" vertex="1" parent="cMiXQTPa7QHdeF7Lkv3R-80">
          <mxGeometry x="614.4197777777775" y="183.35564853556488" width="91.70444444444442" height="27.503347280334737" as="geometry" />
        </mxCell>
        <mxCell id="cMiXQTPa7QHdeF7Lkv3R-121" value="User Setting" style="rounded=1;whiteSpace=wrap;html=1;fillColor=#44ADD8;fontColor=default;strokeColor=#000000;" vertex="1" parent="cMiXQTPa7QHdeF7Lkv3R-80">
          <mxGeometry x="110.04533333333325" y="3.667112970711287" width="91.70444444444442" height="27.503347280334737" as="geometry" />
        </mxCell>
        <mxCell id="cMiXQTPa7QHdeF7Lkv3R-122" value="Online Media" style="rounded=1;whiteSpace=wrap;html=1;fillColor=#44ADD8;fontColor=default;strokeColor=#000000;" vertex="1" parent="cMiXQTPa7QHdeF7Lkv3R-80">
          <mxGeometry x="210.92022222222226" y="3.667112970711287" width="91.70444444444442" height="27.503347280334737" as="geometry" />
        </mxCell>
        <mxCell id="cMiXQTPa7QHdeF7Lkv3R-123" value="User Setting" style="rounded=1;whiteSpace=wrap;html=1;fillColor=#44ADD8;fontColor=default;strokeColor=#000000;" vertex="1" parent="cMiXQTPa7QHdeF7Lkv3R-80">
          <mxGeometry x="110.04533333333325" y="3.667112970711287" width="91.70444444444442" height="27.503347280334737" as="geometry" />
        </mxCell>
        <mxCell id="cMiXQTPa7QHdeF7Lkv3R-124" value="Online Media" style="rounded=1;whiteSpace=wrap;html=1;fillColor=#44ADD8;fontColor=default;strokeColor=#000000;" vertex="1" parent="cMiXQTPa7QHdeF7Lkv3R-80">
          <mxGeometry x="210.92022222222226" y="3.667112970711287" width="91.70444444444442" height="27.503347280334737" as="geometry" />
        </mxCell>
        <mxCell id="cMiXQTPa7QHdeF7Lkv3R-125" value="HD Maps" style="rounded=1;whiteSpace=wrap;html=1;fillColor=#44ADD8;fontColor=default;strokeColor=#000000;" vertex="1" parent="cMiXQTPa7QHdeF7Lkv3R-80">
          <mxGeometry x="311.79511111111105" y="3.667112970711287" width="91.70444444444442" height="27.503347280334737" as="geometry" />
        </mxCell>
        <mxCell id="cMiXQTPa7QHdeF7Lkv3R-126" value="User Setting" style="rounded=1;whiteSpace=wrap;html=1;fillColor=#44ADD8;fontColor=#FFFFFF;strokeColor=#000000;" vertex="1" parent="cMiXQTPa7QHdeF7Lkv3R-80">
          <mxGeometry x="110.04533333333325" y="3.667112970711287" width="91.70444444444442" height="27.503347280334737" as="geometry" />
        </mxCell>
        <mxCell id="cMiXQTPa7QHdeF7Lkv3R-127" value="Online Media" style="rounded=1;whiteSpace=wrap;html=1;fillColor=#44ADD8;fontColor=#FFFFFF;strokeColor=#000000;" vertex="1" parent="cMiXQTPa7QHdeF7Lkv3R-80">
          <mxGeometry x="210.92022222222226" y="3.667112970711287" width="91.70444444444442" height="27.503347280334737" as="geometry" />
        </mxCell>
        <mxCell id="cMiXQTPa7QHdeF7Lkv3R-128" value="HD Maps" style="rounded=1;whiteSpace=wrap;html=1;fillColor=#44ADD8;fontColor=#FFFFFF;strokeColor=#000000;" vertex="1" parent="cMiXQTPa7QHdeF7Lkv3R-80">
          <mxGeometry x="311.79511111111105" y="3.667112970711287" width="91.70444444444442" height="27.503347280334737" as="geometry" />
        </mxCell>
        <mxCell id="cMiXQTPa7QHdeF7Lkv3R-129" value="Radio" style="rounded=1;whiteSpace=wrap;html=1;fillColor=#44ADD8;fontColor=#FFFFFF;strokeColor=#000000;" vertex="1" parent="cMiXQTPa7QHdeF7Lkv3R-80">
          <mxGeometry x="9.170444444444456" y="40.33824267782427" width="91.70444444444442" height="27.503347280334737" as="geometry" />
        </mxCell>
        <mxCell id="cMiXQTPa7QHdeF7Lkv3R-130" value="HVAC" style="rounded=1;whiteSpace=wrap;html=1;fillColor=#44ADD8;fontColor=#FFFFFF;strokeColor=#000000;" vertex="1" parent="cMiXQTPa7QHdeF7Lkv3R-80">
          <mxGeometry x="110.04533333333325" y="40.33824267782427" width="91.70444444444442" height="27.503347280334737" as="geometry" />
        </mxCell>
        <mxCell id="cMiXQTPa7QHdeF7Lkv3R-131" value="Voice Assistant" style="rounded=1;whiteSpace=wrap;html=1;fillColor=#44ADD8;fontColor=#FFFFFF;strokeColor=#000000;" vertex="1" parent="cMiXQTPa7QHdeF7Lkv3R-80">
          <mxGeometry x="210.92022222222226" y="40.33824267782427" width="91.70444444444442" height="27.503347280334737" as="geometry" />
        </mxCell>
        <mxCell id="cMiXQTPa7QHdeF7Lkv3R-132" value="" style="rounded=0;whiteSpace=wrap;html=1;fillColor=#0F3C4C;shadow=0;sketch=0;glass=0;strokeColor=#FFFFFF;fontColor=default;" vertex="1" parent="1">
          <mxGeometry x="1230" y="410" width="790" height="68" as="geometry" />
        </mxCell>
        <mxCell id="cMiXQTPa7QHdeF7Lkv3R-133" value="&lt;b&gt;Android Kernel&lt;/b&gt;" style="rounded=0;whiteSpace=wrap;html=1;fontColor=#FFFFFF;fillColor=#0f3c4c;strokeColor=#FFFFFF;" vertex="1" parent="1">
          <mxGeometry x="1150" y="410" width="80" height="68" as="geometry" />
        </mxCell>
        <mxCell id="cMiXQTPa7QHdeF7Lkv3R-134" value="HAL, HIDL" style="rounded=0;whiteSpace=wrap;html=1;shadow=0;glass=0;sketch=0;fontColor=#FFFFFF;fillColor=#297182;strokeColor=default;fontSize=12;" vertex="1" parent="1">
          <mxGeometry x="1232" y="443" width="95" height="34" as="geometry" />
        </mxCell>
        <mxCell id="cMiXQTPa7QHdeF7Lkv3R-135" value="Android Framework" style="rounded=0;whiteSpace=wrap;html=1;shadow=0;glass=0;sketch=0;fontColor=#FFFFFF;fillColor=#297182;strokeColor=default;fontSize=12;" vertex="1" parent="1">
          <mxGeometry x="1232" y="412" width="95" height="34" as="geometry" />
        </mxCell>
        <mxCell id="cMiXQTPa7QHdeF7Lkv3R-136" value="" style="endArrow=none;dashed=1;html=1;dashPattern=1 3;strokeWidth=2;rounded=0;labelBackgroundColor=default;fontSize=10;fontColor=default;strokeColor=#FFFFFF;exitX=1;exitY=1;exitDx=0;exitDy=0;entryX=1;entryY=0.5;entryDx=0;entryDy=0;" edge="1" parent="1" source="cMiXQTPa7QHdeF7Lkv3R-135" target="cMiXQTPa7QHdeF7Lkv3R-132">
          <mxGeometry width="50" height="50" relative="1" as="geometry">
            <mxPoint x="1500" y="380" as="sourcePoint" />
            <mxPoint x="1550" y="330" as="targetPoint" />
          </mxGeometry>
        </mxCell>
        <mxCell id="cMiXQTPa7QHdeF7Lkv3R-137" value="Sensor" style="rounded=1;whiteSpace=wrap;html=1;fillColor=#3da9c2;fontColor=#FFFFFF;strokeColor=default;" vertex="1" parent="1">
          <mxGeometry x="1335" y="447" width="80" height="30" as="geometry" />
        </mxCell>
        <mxCell id="cMiXQTPa7QHdeF7Lkv3R-138" value="Graphics" style="rounded=1;whiteSpace=wrap;html=1;fillColor=#3da9c2;fontColor=#FFFFFF;strokeColor=default;" vertex="1" parent="1">
          <mxGeometry x="1425.0002222222222" y="447" width="80" height="30" as="geometry" />
        </mxCell>
        <mxCell id="cMiXQTPa7QHdeF7Lkv3R-139" value="USB" style="rounded=1;whiteSpace=wrap;html=1;fillColor=#3da9c2;fontColor=#FFFFFF;strokeColor=default;" vertex="1" parent="1">
          <mxGeometry x="1516.0002222222222" y="447.0019037656904" width="80" height="30" as="geometry" />
        </mxCell>
        <mxCell id="cMiXQTPa7QHdeF7Lkv3R-140" value="Audio" style="rounded=1;whiteSpace=wrap;html=1;fillColor=#3da9c2;fontColor=#FFFFFF;strokeColor=default;" vertex="1" parent="1">
          <mxGeometry x="1607.0002222222222" y="446.4919037656904" width="80" height="30" as="geometry" />
        </mxCell>
        <mxCell id="cMiXQTPa7QHdeF7Lkv3R-141" value="Vehicle HAL" style="rounded=1;whiteSpace=wrap;html=1;fillColor=#3da9c2;fontColor=#FFFFFF;strokeColor=default;" vertex="1" parent="1">
          <mxGeometry x="1699.0002222222222" y="446.4919037656904" width="80" height="30" as="geometry" />
        </mxCell>
        <mxCell id="cMiXQTPa7QHdeF7Lkv3R-142" value="Ethernet" style="rounded=1;whiteSpace=wrap;html=1;fillColor=#3da9c2;fontColor=#FFFFFF;strokeColor=default;" vertex="1" parent="1">
          <mxGeometry x="1880.0002222222222" y="446.4919037656904" width="80" height="30" as="geometry" />
        </mxCell>
        <mxCell id="cMiXQTPa7QHdeF7Lkv3R-143" value="Power" style="rounded=1;whiteSpace=wrap;html=1;fillColor=#3da9c2;fontColor=#FFFFFF;strokeColor=default;" vertex="1" parent="1">
          <mxGeometry x="1790.0002222222222" y="446.4919037656904" width="80" height="30" as="geometry" />
        </mxCell>
        <mxCell id="cMiXQTPa7QHdeF7Lkv3R-144" value="" style="rounded=1;whiteSpace=wrap;html=1;fillColor=#44ADD8;fontColor=default;strokeColor=#000000;" vertex="1" parent="1">
          <mxGeometry x="526.6404444444446" y="210.00167364016738" width="55.02266666666667" height="27.503347280334737" as="geometry" />
        </mxCell>
        <mxCell id="cMiXQTPa7QHdeF7Lkv3R-145" value="" style="rounded=1;whiteSpace=wrap;html=1;fillColor=#44ADD8;fontColor=default;strokeColor=#000000;" vertex="1" parent="1">
          <mxGeometry x="535.810888888889" y="219.1694560669456" width="55.02266666666667" height="27.503347280334737" as="geometry" />
        </mxCell>
        <mxCell id="cMiXQTPa7QHdeF7Lkv3R-146" value="app" style="rounded=1;whiteSpace=wrap;html=1;fillColor=#44ADD8;fontColor=#FFFFFF;strokeColor=#000000;" vertex="1" parent="1">
          <mxGeometry x="544.9813333333335" y="228.33723849372387" width="55.02266666666667" height="27.503347280334737" as="geometry" />
        </mxCell>
        <mxCell id="cMiXQTPa7QHdeF7Lkv3R-147" value="IVY Insights Data will be used to develop new CX apps or enrich existing apps" style="text;html=1;fillColor=#D5E8D4;align=center;verticalAlign=middle;whiteSpace=wrap;rounded=0;fontSize=10;fontColor=default;" vertex="1" parent="1">
          <mxGeometry x="480" y="120" width="134" height="40" as="geometry" />
        </mxCell>
        <mxCell id="cMiXQTPa7QHdeF7Lkv3R-148" value="IVY Insights Data will be used to develop new CX apps or enrich existing apps" style="text;html=1;fillColor=#D5E8D4;align=center;verticalAlign=middle;whiteSpace=wrap;rounded=0;fontSize=10;fontColor=default;" vertex="1" parent="1">
          <mxGeometry x="1232" y="130" width="134" height="40" as="geometry" />
        </mxCell>
        <mxCell id="cMiXQTPa7QHdeF7Lkv3R-149" value="Sensor" style="rounded=1;whiteSpace=wrap;html=1;fillColor=#3da9c2;fontColor=#FFFFFF;strokeColor=default;" vertex="1" parent="1">
          <mxGeometry x="1335" y="447" width="80" height="30" as="geometry" />
        </mxCell>
        <mxCell id="cMiXQTPa7QHdeF7Lkv3R-150" value="Graphics" style="rounded=1;whiteSpace=wrap;html=1;fillColor=#3da9c2;fontColor=#FFFFFF;strokeColor=default;" vertex="1" parent="1">
          <mxGeometry x="1425.0002222222222" y="447" width="80" height="30" as="geometry" />
        </mxCell>
        <mxCell id="cMiXQTPa7QHdeF7Lkv3R-151" value="USB" style="rounded=1;whiteSpace=wrap;html=1;fillColor=#3da9c2;fontColor=#FFFFFF;strokeColor=default;" vertex="1" parent="1">
          <mxGeometry x="1516.0002222222222" y="447.0019037656904" width="80" height="30" as="geometry" />
        </mxCell>
        <mxCell id="cMiXQTPa7QHdeF7Lkv3R-152" value="Audio" style="rounded=1;whiteSpace=wrap;html=1;fillColor=#3da9c2;fontColor=#FFFFFF;strokeColor=default;" vertex="1" parent="1">
          <mxGeometry x="1607.0002222222222" y="446.4919037656904" width="80" height="30" as="geometry" />
        </mxCell>
        <mxCell id="cMiXQTPa7QHdeF7Lkv3R-153" value="Vehicle HAL" style="rounded=1;whiteSpace=wrap;html=1;fillColor=#3da9c2;fontColor=#FFFFFF;strokeColor=default;" vertex="1" parent="1">
          <mxGeometry x="1699.0002222222222" y="446.4919037656904" width="80" height="30" as="geometry" />
        </mxCell>
        <mxCell id="cMiXQTPa7QHdeF7Lkv3R-154" value="Power" style="rounded=1;whiteSpace=wrap;html=1;fillColor=#3da9c2;fontColor=#FFFFFF;strokeColor=default;" vertex="1" parent="1">
          <mxGeometry x="1790.0002222222222" y="446.4919037656904" width="80" height="30" as="geometry" />
        </mxCell>
        <mxCell id="cMiXQTPa7QHdeF7Lkv3R-155" value="Activity Manager" style="rounded=1;whiteSpace=wrap;html=1;fillColor=#3da9c2;fontColor=#FFFFFF;strokeColor=default;" vertex="1" parent="1">
          <mxGeometry x="1335" y="412.51" width="80" height="30" as="geometry" />
        </mxCell>
        <mxCell id="cMiXQTPa7QHdeF7Lkv3R-156" value="Package Manager" style="rounded=1;whiteSpace=wrap;html=1;fillColor=#3da9c2;fontColor=#FFFFFF;strokeColor=default;" vertex="1" parent="1">
          <mxGeometry x="1425.0002222222222" y="412.51" width="80" height="30" as="geometry" />
        </mxCell>
        <mxCell id="cMiXQTPa7QHdeF7Lkv3R-157" value="Location Manager" style="rounded=1;whiteSpace=wrap;html=1;fillColor=#3da9c2;fontColor=#FFFFFF;strokeColor=default;" vertex="1" parent="1">
          <mxGeometry x="1516.0002222222222" y="412.51190376569036" width="80" height="30" as="geometry" />
        </mxCell>
        <mxCell id="cMiXQTPa7QHdeF7Lkv3R-158" value="Sensor Manager" style="rounded=1;whiteSpace=wrap;html=1;fillColor=#3da9c2;fontColor=#FFFFFF;strokeColor=default;" vertex="1" parent="1">
          <mxGeometry x="1607.0002222222222" y="412.0019037656904" width="80" height="30" as="geometry" />
        </mxCell>
        <mxCell id="cMiXQTPa7QHdeF7Lkv3R-159" value="Media Manager" style="rounded=1;whiteSpace=wrap;html=1;fillColor=#3da9c2;fontColor=#FFFFFF;strokeColor=default;" vertex="1" parent="1">
          <mxGeometry x="1699.0002222222222" y="412.0019037656904" width="80" height="30" as="geometry" />
        </mxCell>
        <mxCell id="cMiXQTPa7QHdeF7Lkv3R-160" value="Notification Manager" style="rounded=1;whiteSpace=wrap;html=1;fillColor=#3da9c2;fontColor=#FFFFFF;strokeColor=default;" vertex="1" parent="1">
          <mxGeometry x="1790.0002222222222" y="412.0019037656904" width="80" height="30" as="geometry" />
        </mxCell>
        <mxCell id="cMiXQTPa7QHdeF7Lkv3R-161" value="OpenGL" style="rounded=1;whiteSpace=wrap;html=1;fillColor=#3da9c2;fontColor=#FFFFFF;strokeColor=default;" vertex="1" parent="1">
          <mxGeometry x="1880.0002222222222" y="412.0019037656904" width="80" height="30" as="geometry" />
        </mxCell>
        <mxCell id="cMiXQTPa7QHdeF7Lkv3R-162" value="" style="shape=curlyBracket;whiteSpace=wrap;html=1;rounded=1;flipH=1;fontSize=12;fontColor=#FFFFFF;strokeColor=#FFFFFF;fillColor=#3DA9C2;" vertex="1" parent="1">
          <mxGeometry x="507.80999999999995" y="300" width="20" height="120" as="geometry" />
        </mxCell>
        <mxCell id="cMiXQTPa7QHdeF7Lkv3R-163" value="" style="edgeStyle=elbowEdgeStyle;elbow=horizontal;endArrow=classic;html=1;rounded=0;labelBackgroundColor=default;fontSize=12;fontColor=#FFFFFF;strokeColor=#FFFFFF;entryX=0.1;entryY=0.5;entryDx=0;entryDy=0;entryPerimeter=0;exitX=0;exitY=0.75;exitDx=0;exitDy=0;startArrow=classic;startFill=1;" edge="1" parent="1" source="cMiXQTPa7QHdeF7Lkv3R-76" target="cMiXQTPa7QHdeF7Lkv3R-162">
          <mxGeometry width="50" height="50" relative="1" as="geometry">
            <mxPoint x="560" y="400" as="sourcePoint" />
            <mxPoint x="610" y="350" as="targetPoint" />
          </mxGeometry>
        </mxCell>
        <mxCell id="cMiXQTPa7QHdeF7Lkv3R-164" value="Log Manager" style="rounded=1;whiteSpace=wrap;html=1;fillColor=#2187ab;fontColor=#FFFFFF;strokeColor=default;" vertex="1" parent="1">
          <mxGeometry x="278" y="299" width="100" height="30" as="geometry" />
        </mxCell>
        <mxCell id="cMiXQTPa7QHdeF7Lkv3R-165" value="Display Manager" style="rounded=1;whiteSpace=wrap;html=1;fillColor=#2187ab;fontColor=#FFFFFF;strokeColor=default;" vertex="1" parent="1">
          <mxGeometry x="160" y="300" width="100" height="30" as="geometry" />
        </mxCell>
        <mxCell id="cMiXQTPa7QHdeF7Lkv3R-166" value="Service Security" style="rounded=1;whiteSpace=wrap;html=1;fillColor=#44ADD8;strokeColor=default;fontColor=#FFFFFF;shadow=0;glass=0;sketch=0;" vertex="1" parent="1">
          <mxGeometry x="780" y="500" width="140" height="50" as="geometry" />
        </mxCell>
        <mxCell id="cMiXQTPa7QHdeF7Lkv3R-167" value="FuSa Framework Libs" style="rounded=1;whiteSpace=wrap;html=1;fillColor=#44ADD8;strokeColor=default;fontColor=#FFFFFF;shadow=0;glass=0;sketch=0;" vertex="1" parent="1">
          <mxGeometry x="940" y="500" width="140" height="50" as="geometry" />
        </mxCell>
      </root>
    </mxGraphModel>
  </diagram>
</mxfile>
